<svg width="7400" height="4300" viewBox="0 0 7400 4300" fill="none" xmlns="http://www.w3.org/2000/svg">
<ellipse cx="1791.69" cy="480.532" rx="9.99343" ry="9.88751" fill="white"/>
<ellipse cx="2769.55" cy="576.936" rx="12.4918" ry="12.3594" fill="white"/>
<ellipse cx="3522.05" cy="461.253" rx="6.49573" ry="6.42688" fill="white"/>
<ellipse cx="2131.96" cy="799.406" rx="7.49507" ry="7.41563" fill="white"/>
<ellipse cx="1821.67" cy="1453.46" rx="9.99343" ry="9.88751" fill="white"/>
<ellipse cx="3395.13" cy="1362.99" rx="12.4918" ry="12.3594" fill="white"/>
<ellipse cx="4884.15" cy="1276.97" rx="7.49507" ry="7.41563" fill="white"/>
<ellipse cx="4998.08" cy="269.435" rx="11.4924" ry="11.3706" fill="white"/>
<ellipse cx="4076.68" cy="7.41563" rx="7.49507" ry="7.41563" fill="white"/>
<ellipse cx="1240.44" cy="69.1309" rx="12.3594" ry="12.4918" transform="rotate(-90 1240.44 69.1309)" fill="white"/>
<ellipse cx="504.35" cy="788.22" rx="13.3481" ry="13.4911" transform="rotate(-90 504.35 788.22)" fill="white"/>
<ellipse cx="1007.08" cy="463.762" rx="7.41563" ry="7.49507" transform="rotate(-90 1007.08 463.762)" fill="white"/>
<ellipse cx="507.006" cy="105.612" rx="14.3369" ry="14.4905" transform="rotate(-90 507.006 105.612)" fill="white"/>
<ellipse cx="1402.06" cy="1166.74" rx="14.8313" ry="14.9901" transform="rotate(-90 1402.06 1166.74)" fill="white"/>
<ellipse cx="383.117" cy="1721.91" rx="12.3594" ry="12.4918" transform="rotate(-90 383.117 1721.91)" fill="white"/>
<ellipse cx="4263.56" cy="1557.78" rx="12.3594" ry="12.4918" transform="rotate(-90 4263.56 1557.78)" fill="white"/>
<ellipse cx="4288.55" cy="3630.2" rx="12.3594" ry="12.4918" transform="rotate(-90 4288.55 3630.2)" fill="white"/>
<ellipse cx="5940.46" cy="2220.24" rx="12.3594" ry="12.4918" transform="rotate(-90 5940.46 2220.24)" fill="white"/>
<ellipse cx="6820.88" cy="3086.39" rx="12.3594" ry="12.4918" transform="rotate(-90 6820.88 3086.39)" fill="white"/>
<ellipse cx="5915.48" cy="891.359" rx="12.3594" ry="12.4918" transform="rotate(-90 5915.48 891.359)" fill="white"/>
<ellipse cx="6548.06" cy="320.85" rx="12.3594" ry="12.4918" transform="rotate(-90 6548.06 320.85)" fill="white"/>
<ellipse cx="703.69" cy="1525.2" rx="7.41563" ry="7.49507" transform="rotate(-90 703.69 1525.2)" fill="white"/>
<ellipse cx="9.99343" cy="1299.43" rx="9.88751" ry="9.99343" transform="rotate(-90 9.99343 1299.43)" fill="white"/>
<ellipse cx="290.773" cy="2833.89" rx="12.3594" ry="12.4918" transform="rotate(-90 290.773 2833.89)" fill="white"/>
<ellipse cx="965.114" cy="3213.4" rx="4.94375" ry="4.99671" transform="rotate(-90 965.114 3213.4)" fill="white"/>
<path d="M668.43 3629.68C675.053 3629.68 680.422 3635 680.422 3641.55C680.422 3648.1 675.053 3653.41 668.43 3653.41C661.807 3653.41 656.438 3648.1 656.438 3641.55C656.438 3635 661.807 3629.68 668.43 3629.68Z" fill="white"/>
<ellipse cx="1149.27" cy="3892.45" rx="14.8313" ry="14.9901" transform="rotate(-90 1149.27 3892.45)" fill="white"/>
<ellipse cx="556.893" cy="4285.97" rx="7.41563" ry="7.49507" transform="rotate(-90 556.893 4285.97)" fill="white"/>
<ellipse cx="1733.15" cy="3339.59" rx="7.41563" ry="7.49507" transform="rotate(-90 1733.15 3339.59)" fill="white"/>
<ellipse cx="3128.06" cy="81.5723" rx="12.3594" ry="12.4918" transform="rotate(90 3128.06 81.5723)" fill="white"/>
<ellipse cx="2391.98" cy="800.661" rx="13.3481" ry="13.4911" transform="rotate(90 2391.98 800.661)" fill="white"/>
<ellipse cx="2394.63" cy="118.054" rx="14.3369" ry="14.4905" transform="rotate(90 2394.63 118.054)" fill="white"/>
<ellipse cx="4530.88" cy="1360.52" rx="14.8313" ry="14.9901" transform="rotate(90 4530.88 1360.52)" fill="white"/>
<ellipse cx="5069.53" cy="549.745" rx="14.8313" ry="14.9901" transform="rotate(90 5069.53 549.745)" fill="white"/>
<ellipse cx="6563.55" cy="1443.58" rx="14.8313" ry="14.9901" transform="rotate(90 6563.55 1443.58)" fill="white"/>
<ellipse cx="6428.63" cy="2360.15" rx="14.8313" ry="14.9901" transform="rotate(90 6428.63 2360.15)" fill="white"/>
<ellipse cx="5301.38" cy="2438.26" rx="14.8313" ry="14.9901" transform="rotate(90 5301.38 2438.26)" fill="white"/>
<ellipse cx="6102.85" cy="3193.67" rx="14.8313" ry="14.9901" transform="rotate(90 6102.85 3193.67)" fill="white"/>
<ellipse cx="3763.39" cy="1956.74" rx="14.8313" ry="14.9901" transform="rotate(90 3763.39 1956.74)" fill="white"/>
<ellipse cx="2870.16" cy="1164.93" rx="9.88751" ry="9.99343" transform="rotate(90 2870.16 1164.93)" fill="white"/>
<ellipse cx="2980.76" cy="2248.76" rx="12.3594" ry="12.4918" transform="rotate(90 2980.76 2248.76)" fill="white"/>
<ellipse cx="2529.97" cy="2778.62" rx="7.91001" ry="7.99474" transform="rotate(90 2529.97 2778.62)" fill="white"/>
<ellipse cx="2197.97" cy="2199.04" rx="8.89876" ry="8.99408" transform="rotate(90 2197.97 2199.04)" fill="white"/>
<ellipse cx="1936.09" cy="1949.32" rx="7.41563" ry="7.49507" transform="rotate(90 1936.09 1949.32)" fill="white"/>
<ellipse cx="43.3409" cy="2633.54" rx="7.41563" ry="7.49507" transform="rotate(90 43.3409 2633.54)" fill="white"/>
<ellipse cx="2116.97" cy="3870.46" rx="7.41563" ry="7.49507" transform="rotate(90 2116.97 3870.46)" fill="white"/>
<ellipse cx="5102.01" cy="1988.87" rx="7.41563" ry="7.49507" transform="rotate(90 5102.01 1988.87)" fill="white"/>
<ellipse cx="7392.5" cy="3529.35" rx="7.41563" ry="7.49507" transform="rotate(90 7392.5 3529.35)" fill="white"/>
<ellipse cx="5960.45" cy="139.908" rx="7.41563" ry="7.49507" transform="rotate(90 5960.45 139.908)" fill="white"/>
<ellipse cx="1202.29" cy="2383.9" rx="11.9921" ry="11.865" fill="white"/>
<ellipse cx="1627.12" cy="2244.49" rx="14.8313" ry="14.9901" transform="rotate(-90 1627.12 2244.49)" fill="white"/>
<ellipse cx="2168.52" cy="1542.45" rx="11.865" ry="11.9921" transform="rotate(90 2168.52 1542.45)" fill="white"/>
<ellipse cx="11.9694" cy="11.888" rx="11.9694" ry="11.888" transform="matrix(0.907345 0.420386 -0.427798 0.903874 3458.77 2678.32)" fill="white"/>
<ellipse cx="9.97446" cy="9.90664" rx="9.97446" ry="9.90664" transform="matrix(0.907345 0.420386 -0.427798 0.903874 4493.68 2147.57)" fill="white"/>
<ellipse cx="11.9918" cy="11.8653" rx="11.9918" ry="11.8653" transform="matrix(-0.998972 0.0453295 -0.0463038 -0.998927 6916.95 3343.1)" fill="white"/>
<ellipse cx="7.4949" cy="7.4158" rx="7.4949" ry="7.4158" transform="matrix(-0.998972 0.0453295 -0.0463038 -0.998927 5782.18 3897.4)" fill="white"/>
<ellipse cx="14.8316" cy="14.9898" rx="14.8316" ry="14.9898" transform="matrix(0.0463038 0.998927 -0.998972 0.0453295 6500.77 3474.81)" fill="white"/>
<ellipse cx="11.8653" cy="11.9918" rx="11.8653" ry="11.9918" transform="matrix(-0.0463038 -0.998927 0.998972 -0.0453295 5966.73 4228.55)" fill="white"/>
<ellipse cx="9.88773" cy="9.99321" rx="9.88773" ry="9.99321" transform="matrix(-0.0463038 -0.998927 0.998972 -0.0453295 5010.48 3568.98)" fill="white"/>
<ellipse cx="2178.4" cy="2846.34" rx="12.3594" ry="12.4918" transform="rotate(90 2178.4 2846.34)" fill="white"/>
<ellipse cx="6.49573" cy="6.42688" rx="6.49573" ry="6.42688" transform="matrix(-1 -0.000285771 0.000291926 -1 4613.15 2617.09)" fill="white"/>
<ellipse cx="12.4918" cy="12.3594" rx="12.4918" ry="12.3594" transform="matrix(-1 -0.000285771 0.000291926 -1 4635.34 1712.72)" fill="white"/>
<ellipse cx="3608.5" cy="3226.29" rx="4.94375" ry="4.99671" transform="rotate(90 3608.5 3226.29)" fill="white"/>
<ellipse cx="7.42998" cy="7.48085" rx="7.42998" ry="7.48085" transform="matrix(0.427798 -0.903874 0.907345 0.420386 3445.6 1792.32)" fill="white"/>
<ellipse cx="9.97446" cy="9.90664" rx="9.97446" ry="9.90664" transform="matrix(0.907345 0.420386 -0.427798 0.903874 3820.44 2202.9)" fill="white"/>
<ellipse cx="12.4911" cy="12.3601" rx="12.4911" ry="12.3601" transform="matrix(0.997454 0.0713111 -0.0728391 0.997344 4206.52 643.916)" fill="white"/>
<ellipse cx="7.49466" cy="7.41605" rx="7.49466" ry="7.41605" transform="matrix(-0.997454 -0.0713111 0.0728391 -0.997344 3870.96 1068.01)" fill="white"/>
<ellipse cx="7.47621" cy="7.43465" rx="7.47621" ry="7.43465" transform="matrix(0.874906 0.484293 -0.492217 0.870472 4006.66 498.33)" fill="white"/>
<ellipse cx="9.91286" cy="9.96828" rx="9.91286" ry="9.96828" transform="matrix(-0.492217 0.870472 -0.874906 -0.484293 3565.74 838.641)" fill="white"/>
<ellipse cx="9.91286" cy="9.96828" rx="9.91286" ry="9.96828" transform="matrix(-0.492217 0.870472 -0.874906 -0.484293 4834.91 97.0781)" fill="white"/>
<ellipse cx="7.9104" cy="7.99435" rx="7.9104" ry="7.99435" transform="matrix(0.0689616 0.997619 -0.997718 0.0675142 4807.86 870.102)" fill="white"/>
<ellipse cx="4.944" cy="4.99647" rx="4.944" ry="4.99647" transform="matrix(0.0689616 0.997619 -0.997718 0.0675142 5103.55 1336.7)" fill="white"/>
<ellipse cx="7.41563" cy="7.49507" rx="7.41563" ry="7.49507" transform="matrix(0.00388765 -0.999992 0.999993 0.00380568 4775.66 1377.37)" fill="white"/>
<ellipse cx="6.49573" cy="6.42688" rx="6.49573" ry="6.42688" transform="matrix(0.999992 0.00409145 -0.00417958 0.999991 4586.91 1523.12)" fill="white"/>
<ellipse cx="12.4043" cy="12.4472" rx="12.4043" ry="12.4472" transform="matrix(-0.585566 0.810625 -0.816487 -0.577365 7016.12 4214.14)" fill="white"/>
<ellipse cx="7.44258" cy="7.46831" rx="7.44258" ry="7.46831" transform="matrix(0.585566 -0.810625 0.816487 0.577365 6825.28 3709.73)" fill="white"/>
<ellipse cx="9.91306" cy="9.96808" rx="9.91306" ry="9.96808" transform="matrix(-0.494173 -0.869363 0.873827 -0.486237 6670.56 1884.79)" fill="white"/>
<ellipse cx="7.44258" cy="7.46831" rx="7.44258" ry="7.46831" transform="matrix(0.585566 -0.810625 0.816487 0.577365 6621.42 530.898)" fill="white"/>
<ellipse cx="7.47606" cy="7.4348" rx="7.47606" ry="7.4348" transform="matrix(-0.873827 0.486237 -0.494173 -0.869363 7042.02 942.447)" fill="white"/>
<ellipse cx="9.91306" cy="9.96808" rx="9.91306" ry="9.96808" transform="matrix(-0.494173 -0.869363 0.873827 -0.486237 6978.36 392.768)" fill="white"/>
<ellipse cx="4.97886" cy="4.96174" rx="4.97886" ry="4.96174" transform="matrix(0.81632 0.5776 -0.585801 0.810455 6538.69 953.199)" fill="white"/>
<path d="M2556.05 3665.85C2549.43 3665.85 2544.06 3660.54 2544.06 3653.99C2544.06 3647.44 2549.43 3642.12 2556.05 3642.12C2562.68 3642.12 2568.05 3647.44 2568.05 3653.99C2568.05 3660.54 2562.68 3665.85 2556.05 3665.85Z" fill="white"/>
<ellipse cx="3036.9" cy="3904.89" rx="14.8313" ry="14.9901" transform="rotate(90 3036.9 3904.89)" fill="white"/>
<ellipse cx="3469.16" cy="4288.63" rx="11.3706" ry="11.4924" transform="rotate(90 3469.16 4288.63)" fill="white"/>
<ellipse cx="3620.78" cy="3352.03" rx="7.41563" ry="7.49507" transform="rotate(90 3620.78 3352.03)" fill="white"/>
</svg>
