<svg width="7400" height="4300" viewBox="0 0 7400 4300" fill="none" xmlns="http://www.w3.org/2000/svg">
<ellipse cx="631.058" cy="97.2043" rx="12.8787" ry="12.4621" fill="white"/>
<ellipse cx="577.478" cy="827.981" rx="14.9393" ry="14.456" fill="white"/>
<ellipse cx="879.871" cy="1316.99" rx="12.3636" ry="11.9636" fill="white"/>
<path d="M4267.49 1098.66C4267.49 1105.27 4261.96 1110.62 4255.13 1110.62C4248.3 1110.62 4242.77 1105.27 4242.77 1098.66C4242.77 1092.05 4248.3 1086.7 4255.13 1086.7C4261.96 1086.7 4267.49 1092.05 4267.49 1098.66Z" fill="white"/>
<ellipse cx="4574.52" cy="653.013" rx="15.4545" ry="14.9545" fill="white"/>
<ellipse cx="885.342" cy="1162.07" rx="9.96967" ry="10.303" transform="rotate(-90 885.342 1162.07)" fill="white"/>
<ellipse cx="12.8787" cy="3952.48" rx="12.4621" ry="12.8787" transform="rotate(-90 12.8787 3952.48)" fill="white"/>
<ellipse cx="2701.96" cy="1985.46" rx="12.4621" ry="12.8787" transform="rotate(-90 2701.96 1985.46)" fill="white"/>
<ellipse cx="7153.87" cy="1294.56" rx="12.4621" ry="12.8787" transform="rotate(-90 7153.87 1294.56)" fill="white"/>
<ellipse cx="1457.08" cy="2494.28" rx="10.4682" ry="10.8181" transform="rotate(-90 1457.08 2494.28)" fill="white"/>
<ellipse cx="534.617" cy="2789.17" rx="7.97574" ry="8.24238" transform="rotate(-90 534.617 2789.17)" fill="white"/>
<ellipse cx="192.343" cy="2204.77" rx="8.97271" ry="9.27268" transform="rotate(-90 192.343 2204.77)" fill="white"/>
<ellipse cx="2856.75" cy="480.161" rx="7.47725" ry="7.72724" transform="rotate(90 2856.75 480.161)" fill="white"/>
<ellipse cx="1876.03" cy="468.557" rx="11.9636" ry="12.3636" transform="rotate(90 1876.03 468.557)" fill="white"/>
<ellipse cx="3263.97" cy="1188.98" rx="14.9545" ry="15.4545" transform="rotate(90 3263.97 1188.98)" fill="white"/>
<ellipse cx="5552.28" cy="1401.74" rx="14.9545" ry="15.4545" transform="rotate(90 5552.28 1401.74)" fill="white"/>
<ellipse cx="6651.61" cy="805.55" rx="14.9545" ry="15.4545" transform="rotate(90 6651.61 805.55)" fill="white"/>
<ellipse cx="5337.98" cy="2458.52" rx="14.9545" ry="15.4545" transform="rotate(90 5337.98 2458.52)" fill="white"/>
<ellipse cx="5583.19" cy="4089.56" rx="14.9545" ry="15.4545" transform="rotate(90 5583.19 4089.56)" fill="white"/>
<ellipse cx="3403.18" cy="2506.83" rx="10.4682" ry="10.8181" transform="rotate(90 3403.18 2506.83)" fill="white"/>
<ellipse cx="3066.81" cy="2885.88" rx="6.48029" ry="6.69694" transform="rotate(90 3066.81 2885.88)" fill="white"/>
<ellipse cx="2543.97" cy="1550.42" rx="7.47725" ry="7.72724" transform="rotate(90 2543.97 1550.42)" fill="white"/>
<ellipse cx="151.968" cy="3352.3" rx="7.47725" ry="7.72724" transform="rotate(90 151.968 3352.3)" fill="white"/>
<ellipse cx="4426.68" cy="2794" rx="7.47725" ry="7.72724" transform="rotate(90 4426.68 2794)" fill="white"/>
<ellipse cx="6286.37" cy="3972.42" rx="7.47725" ry="7.72724" transform="rotate(90 6286.37 3972.42)" fill="white"/>
<ellipse cx="6389.39" cy="1590.66" rx="7.47725" ry="7.72724" transform="rotate(90 6389.39 1590.66)" fill="white"/>
<ellipse cx="6017.45" cy="141.071" rx="7.47725" ry="7.72724" transform="rotate(90 6017.45 141.071)" fill="white"/>
<ellipse cx="1828.78" cy="1322.77" rx="9.96967" ry="10.303" transform="rotate(90 1828.78 1322.77)" fill="white"/>
<ellipse cx="829.907" cy="2624.59" rx="7.47725" ry="7.72724" transform="rotate(-90 829.907 2624.59)" fill="white"/>
<ellipse cx="2060.81" cy="2409.48" rx="9.96967" ry="10.303" transform="rotate(90 2060.81 2409.48)" fill="white"/>
<ellipse cx="15.3658" cy="15.0457" rx="15.3658" ry="15.0457" transform="matrix(-0.910852 -0.412733 0.435606 -0.900137 3877.48 3525.7)" fill="white"/>
<ellipse cx="7.68288" cy="7.52283" rx="7.68288" ry="7.52283" transform="matrix(-0.910852 -0.412733 0.435606 -0.900137 3906.7 4300)" fill="white"/>
<ellipse cx="7.68288" cy="7.52283" rx="7.68288" ry="7.52283" transform="matrix(0.910852 0.412733 -0.435606 0.900137 4838.32 3348.03)" fill="white"/>
<ellipse cx="10.2438" cy="10.0304" rx="10.2438" ry="10.0304" transform="matrix(0.910852 0.412733 -0.435606 0.900137 4218.7 3106.89)" fill="white"/>
<ellipse cx="7.47779" cy="7.72672" rx="7.47779" ry="7.72672" transform="matrix(-0.0473424 -0.998879 0.999017 -0.044335 5965.05 2763.27)" fill="white"/>
<ellipse cx="2813.49" cy="3252.65" rx="4.98484" ry="5.15149" transform="rotate(90 2813.49 3252.65)" fill="white"/>
<ellipse cx="8.24238" cy="7.97574" rx="8.24238" ry="7.97574" transform="matrix(-1 -0.000279488 0.000298488 -1 4717.12 2073.22)" fill="white"/>
<ellipse cx="5.15149" cy="4.98484" rx="5.15149" ry="4.98484" transform="matrix(-1 -0.000279488 0.000298488 -1 4247.92 2392.1)" fill="white"/>
<ellipse cx="3574.05" cy="1585.3" rx="12.4621" ry="12.8787" transform="rotate(-90 3574.05 1585.3)" fill="white"/>
<ellipse cx="4019.14" cy="1908.32" rx="7.47725" ry="7.72724" transform="rotate(90 4019.14 1908.32)" fill="white"/>
<ellipse cx="4654.88" cy="270.179" rx="8.24238" ry="7.97574" fill="white"/>
<ellipse cx="5157.67" cy="4.98484" rx="5.15149" ry="4.98484" fill="white"/>
<ellipse cx="6.48144" cy="6.69582" rx="6.48144" ry="6.69582" transform="matrix(0.074765 -0.997201 0.997545 0.07003 5309.97 527.053)" fill="white"/>
<ellipse cx="6.62442" cy="6.5544" rx="6.62442" ry="6.5544" transform="matrix(0.822307 0.569044 -0.594351 0.804206 6662.48 3751.55)" fill="white"/>
<ellipse cx="5.0418" cy="5.09575" rx="5.0418" ry="5.09575" transform="matrix(0.594116 -0.804379 0.82247 0.568809 7385.62 3810.34)" fill="white"/>
<ellipse cx="7.66791" cy="7.53808" rx="7.66791" ry="7.53808" transform="matrix(-0.878354 0.478011 -0.5025 -0.864577 6815.2 2454.7)" fill="white"/>
<ellipse cx="6.62442" cy="6.5544" rx="6.62442" ry="6.5544" transform="matrix(0.822307 0.569044 -0.594351 0.804206 6134.98 2050.72)" fill="white"/>
<ellipse cx="6.62442" cy="6.5544" rx="6.62442" ry="6.5544" transform="matrix(0.822307 0.569044 -0.594351 0.804206 6452.3 546.299)" fill="white"/>
</svg>
