<svg width="7400" height="4300" viewBox="0 0 7400 4300" fill="none" xmlns="http://www.w3.org/2000/svg">
<ellipse cx="1361.03" cy="860.738" rx="13.8619" ry="13.5037" fill="white"/>
<ellipse cx="1088.94" cy="321.588" rx="7.70107" ry="7.50208" fill="white"/>
<ellipse cx="1862.64" cy="15.0042" rx="15.4021" ry="15.0042" fill="white"/>
<ellipse cx="2489.5" cy="149.541" rx="6.67426" ry="6.5018" fill="white"/>
<ellipse cx="3226.75" cy="40.5107" rx="10.7815" ry="10.5029" fill="white"/>
<ellipse cx="3417.22" cy="965.268" rx="8.21448" ry="8.00221" fill="white"/>
<ellipse cx="2778.55" cy="1224.34" rx="9.24129" ry="9.00249" fill="white"/>
<ellipse cx="4301.3" cy="355.098" rx="9.24129" ry="9.00249" fill="white"/>
<ellipse cx="3918.31" cy="699.193" rx="5.13405" ry="5.00138" fill="white"/>
<ellipse cx="12.3217" cy="401.512" rx="12.0033" ry="12.3217" transform="rotate(-90 12.3217 401.512)" fill="white"/>
<ellipse cx="1334.16" cy="1746.77" rx="6.5018" ry="6.67426" transform="rotate(-90 1334.16 1746.77)" fill="white"/>
<ellipse cx="1078.13" cy="2206.37" rx="12.5035" ry="12.8351" transform="rotate(-90 1078.13 2206.37)" fill="white"/>
<ellipse cx="4050.25" cy="2423.17" rx="12.5035" ry="12.8351" transform="rotate(-90 4050.25 2423.17)" fill="white"/>
<ellipse cx="5176.66" cy="2974.32" rx="12.5035" ry="12.8351" transform="rotate(-90 5176.66 2974.32)" fill="white"/>
<ellipse cx="5032.91" cy="4074.63" rx="12.5035" ry="12.8351" transform="rotate(-90 5032.91 4074.63)" fill="white"/>
<ellipse cx="1199.06" cy="2826.86" rx="6.5018" ry="6.67426" transform="rotate(-90 1199.06 2826.86)" fill="white"/>
<ellipse cx="1343.49" cy="3523.66" rx="9.00249" ry="9.24129" transform="rotate(-90 1343.49 3523.66)" fill="white"/>
<ellipse cx="1579.96" cy="4270.02" rx="11.5032" ry="11.8083" transform="rotate(-90 1579.96 4270.02)" fill="white"/>
<ellipse cx="5192.57" cy="3506.97" rx="15.0042" ry="15.4021" transform="rotate(90 5192.57 3506.97)" fill="white"/>
<ellipse cx="3273.67" cy="1759.36" rx="6.5018" ry="6.67426" transform="rotate(90 3273.67 1759.36)" fill="white"/>
<ellipse cx="3283" cy="3536.25" rx="9.00249" ry="9.24129" transform="rotate(90 3283 3536.25)" fill="white"/>
<ellipse cx="6012.49" cy="3053.34" rx="7.50208" ry="7.70107" transform="rotate(90 6012.49 3053.34)" fill="white"/>
<ellipse cx="7191.26" cy="2214.11" rx="7.50208" ry="7.70107" transform="rotate(90 7191.26 2214.11)" fill="white"/>
<ellipse cx="5592.52" cy="621.672" rx="7.50208" ry="7.70107" transform="rotate(90 5592.52 621.672)" fill="white"/>
<ellipse cx="2376.76" cy="1843.03" rx="7.70107" ry="7.50208" fill="white"/>
<ellipse cx="3135.24" cy="2212.81" rx="10.0028" ry="10.2681" transform="rotate(90 3135.24 2212.81)" fill="white"/>
<ellipse cx="2175.51" cy="3006.35" rx="7.50208" ry="7.70107" transform="rotate(90 2175.51 3006.35)" fill="white"/>
<ellipse cx="12.0612" cy="12.2651" rx="12.0612" ry="12.2651" transform="matrix(0.433243 -0.901277 0.909807 0.415033 3868.68 3912.13)" fill="white"/>
<ellipse cx="7.53825" cy="7.66566" rx="7.53825" ry="7.66566" transform="matrix(0.433243 -0.901277 0.909807 0.415033 3901.42 2645.82)" fill="white"/>
<ellipse cx="7.5025" cy="7.70066" rx="7.5025" ry="7.70066" transform="matrix(0.0470267 0.998894 -0.999004 0.0446327 7326.8 3072.85)" fill="white"/>
<ellipse cx="10.0033" cy="10.2675" rx="10.0033" ry="10.2675" transform="matrix(-0.0470267 -0.998894 0.999004 -0.0446327 6094.38 3361.49)" fill="white"/>
<ellipse cx="6.67426" cy="6.5018" rx="6.67426" ry="6.5018" transform="matrix(-1 -0.000281369 0.000296493 -1 5803.59 2723.5)" fill="white"/>
<ellipse cx="7.70107" cy="7.50208" rx="7.70107" ry="7.50208" transform="matrix(-1 -0.000281369 0.000296493 -1 6071.51 2085.36)" fill="white"/>
<ellipse cx="7.70107" cy="7.50208" rx="7.70107" ry="7.50208" transform="matrix(-1 -0.000281369 0.000296493 -1 5644.18 1429.4)" fill="white"/>
<ellipse cx="4068.22" cy="2956.82" rx="5.00138" ry="5.13405" transform="rotate(90 4068.22 2956.82)" fill="white"/>
<ellipse cx="4068.22" cy="2956.82" rx="5.00138" ry="5.13405" transform="rotate(90 4068.22 2956.82)" fill="white"/>
<ellipse cx="6.67426" cy="6.5018" rx="6.67426" ry="6.5018" transform="matrix(-1 -0.000281369 0.000296493 -1 4288.73 1702.95)" fill="white"/>
<ellipse cx="5.13405" cy="5.00138" rx="5.13405" ry="5.00138" transform="matrix(-1 -0.000281369 0.000296493 -1 3909.52 1455.4)" fill="white"/>
<ellipse cx="3662.06" cy="2068.19" rx="5.00138" ry="5.13405" transform="rotate(90 3662.06 2068.19)" fill="white"/>
<ellipse cx="6.50271" cy="6.67337" rx="6.50271" ry="6.67337" transform="matrix(0.0742681 -0.997238 0.997512 0.0704988 4070.09 1222.99)" fill="white"/>
<ellipse cx="5.00209" cy="5.13336" rx="5.00209" ry="5.13336" transform="matrix(0.0742681 -0.997238 0.997512 0.0704988 4350.88 872.383)" fill="white"/>
<ellipse cx="7.70005" cy="7.50312" rx="7.70005" ry="7.50312" transform="matrix(-0.997532 -0.070218 0.0739725 -0.99726 5236.36 274.232)" fill="white"/>
<ellipse cx="5.00209" cy="5.13336" rx="5.00209" ry="5.13336" transform="matrix(0.0742681 -0.997238 0.997512 0.0704988 5654.92 122.174)" fill="white"/>
<ellipse cx="10.2201" cy="10.0518" rx="10.2201" ry="10.0518" transform="matrix(-0.90823 -0.418471 0.436764 -0.899576 5078.12 1016.78)" fill="white"/>
<ellipse cx="5.13405" cy="5.00139" rx="5.13405" ry="5.00139" transform="matrix(0.999992 0.00402842 -0.00424497 0.999991 5046.16 1733.83)" fill="white"/>
<ellipse cx="5.13337" cy="5.00208" rx="5.13337" ry="5.00208" transform="matrix(-0.997532 -0.070218 0.0739725 -0.99726 3746.05 593.127)" fill="white"/>
<ellipse cx="7.65373" cy="7.55037" rx="7.65373" ry="7.55037" transform="matrix(-0.877002 0.480486 -0.499983 -0.866035 7400 4113.31)" fill="white"/>
<ellipse cx="10.0672" cy="10.205" rx="10.0672" ry="10.205" transform="matrix(-0.499983 -0.866035 0.877002 -0.480486 7334.59 3557.22)" fill="white"/>
<ellipse cx="5.08954" cy="5.04666" rx="5.08954" ry="5.04666" transform="matrix(0.820515 0.571624 -0.591773 0.806105 6882.84 4124.19)" fill="white"/>
<ellipse cx="12.6166" cy="12.724" rx="12.6166" ry="12.724" transform="matrix(-0.591538 0.806277 -0.820679 -0.571389 6638.2 2500.77)" fill="white"/>
<ellipse cx="7.56994" cy="7.63437" rx="7.56994" ry="7.63437" transform="matrix(0.591538 -0.806277 0.820679 0.571389 6442.11 1990.49)" fill="white"/>
<ellipse cx="5.08954" cy="5.04666" rx="5.08954" ry="5.04666" transform="matrix(0.820515 0.571624 -0.591773 0.806105 6357.11 2417.71)" fill="white"/>
<ellipse cx="5.04663" cy="5.08958" rx="5.04663" ry="5.08958" transform="matrix(0.591538 -0.806277 0.820679 0.571389 6917.04 2060.5)" fill="white"/>
<ellipse cx="12.6166" cy="12.724" rx="12.6166" ry="12.724" transform="matrix(-0.591538 0.806277 -0.820679 -0.571389 6954.45 991.355)" fill="white"/>
<ellipse cx="5.04663" cy="5.08958" rx="5.04663" ry="5.08958" transform="matrix(0.591538 -0.806277 0.820679 0.571389 7233.3 551.082)" fill="white"/>
<ellipse cx="2466.66" cy="4292.5" rx="7.50208" ry="7.70107" transform="rotate(90 2466.66 4292.5)" fill="white"/>
</svg>
