<svg width="30" height="30" viewBox="0 0 30 30" fill="none" xmlns="http://www.w3.org/2000/svg">
<path d="M15 0.888184C6.72379 0.888184 0 7.28931 0 15.1683C0 22.3209 5.5415 28.2401 12.7588 29.2723L13.5418 29.3851V18.1324H9.99822V15.8479H13.5418V12.8141C13.5418 10.9459 14.0127 9.71554 14.7923 8.9436C15.5718 8.17165 16.7236 7.78232 18.3265 7.78232C19.6082 7.78232 20.1068 7.85625 20.5811 7.91163V9.78159H18.9125C17.9657 9.78159 17.1889 10.2845 16.7858 10.9543C16.3826 11.6241 16.2571 12.4238 16.2571 13.2388V15.8466H20.4319L20.0604 18.1311H16.2571V29.4029L17.0308 29.3027C24.3507 28.3576 30 22.3908 30 15.1683C30 7.28931 23.2762 0.888184 15 0.888184ZM15 2.18638C22.5392 2.18638 28.6364 7.9909 28.6364 15.1683C28.6364 21.4839 23.888 26.678 17.6207 27.8473V19.4293H21.2296L22.0219 14.5484H17.6207V13.2388C17.6207 12.5654 17.7502 11.962 17.9683 11.5996C18.1864 11.2372 18.3967 11.0798 18.9125 11.0798H21.9447V6.73641L21.3534 6.66034C20.9445 6.60766 20.0108 6.48412 18.3265 6.48412C16.4835 6.48412 14.9015 6.96209 13.8095 8.04348C12.7174 9.12487 12.1782 10.7351 12.1782 12.8141V14.5497H8.63459V19.4306H12.1782V27.8068C6.01159 26.5631 1.36364 21.4156 1.36364 15.1683C1.36364 7.9909 7.46075 2.18638 15 2.18638Z" fill="#EB8046"/>
</svg>
