<svg width="275" height="275" viewBox="0 0 275 275" fill="white" xmlns="http://www.w3.org/2000/svg">
<path d="M137.513 7.73222C103.096 7.74344 70.0911 21.4207 45.7542 45.7576C21.4173 70.0946 7.73997 103.099 7.72875 137.517V137.564C7.73997 171.981 21.4173 204.986 45.7542 229.323C70.0911 253.66 103.096 267.337 137.513 267.349H137.56C171.979 267.34 204.985 253.663 229.322 229.326C253.66 204.988 267.336 171.982 267.345 137.564V137.517C267.334 103.097 253.655 70.09 229.315 45.7527C204.975 21.4154 171.966 7.7397 137.546 7.73222H137.513ZM137.513 0.57056H137.556C155.537 0.572412 173.342 4.11624 189.953 10.9997C206.565 17.8831 221.658 27.9713 234.371 40.6882C247.083 53.4051 257.166 68.5015 264.044 85.1155C270.922 101.729 274.459 119.536 274.455 137.517V137.559C274.454 155.541 270.912 173.346 264.029 189.958C257.146 206.57 247.059 221.664 234.342 234.377C221.625 247.09 206.529 257.173 189.915 264.051C173.301 270.93 155.495 274.467 137.513 274.463H137.466C119.485 274.461 101.681 270.917 85.0693 264.034C68.458 257.15 53.3653 247.062 40.6531 234.345C27.941 221.628 17.8584 206.532 10.9812 189.918C4.10398 173.304 0.566842 155.498 0.571783 137.517V137.47C0.573635 119.489 4.1173 101.684 11.0004 85.0732C17.8836 68.4619 27.9714 53.3691 40.6877 40.6566C53.4041 27.9441 68.5001 17.861 85.1135 10.983C101.727 4.10502 119.532 0.566854 137.513 0.57056Z"  fill="#EB8046"/>
<path fill-rule="evenodd" clip-rule="evenodd" d="M98.7738 206.168L101.468 197.882H101.6L104.318 206.168H98.7738ZM113.624 211.34C111.973 206.906 110.102 201.79 108.235 196.631L105.287 188.43L102.296 189.028L93.6106 211.467C92.1999 215.112 91.5322 215.281 89.3127 215.591V217.284H99.4227V215.572L98.1719 215.441C96.1734 215.22 96.1734 214.792 96.733 212.93L98.0402 208.763H105.155L106.721 213.188C107.28 214.745 107.191 215.187 105.587 215.398L104.28 215.572V217.265H117.917V215.572C115.792 215.318 115.011 215.102 113.628 211.34H113.624ZM175.695 206.168L178.394 197.882H178.516L181.267 206.168H175.695ZM190.54 211.34C188.889 206.906 187.027 201.79 185.16 196.631L182.212 188.43L179.212 189.028L170.532 211.467C169.097 215.112 168.462 215.281 166.248 215.591V217.284H176.358V215.572L175.097 215.441C173.099 215.22 173.099 214.792 173.687 212.93L174.985 208.763H182.099L183.67 213.188C184.225 214.745 184.14 215.187 182.532 215.398L181.234 215.572V217.265H194.871V215.572C192.741 215.318 191.969 215.102 190.573 211.34H190.54ZM227.129 213.767C226.217 214.895 224.35 215.022 222.967 215.022C221.585 215.022 220.616 214.985 219.92 214.637C219.135 214.246 219.05 213.16 219.05 210.903V195.992C219.05 191.289 219.403 191.007 222.53 190.749V189.051H208.423V190.749C211.338 191.007 211.715 191.308 211.715 195.992V210.31C211.715 215.013 211.362 215.314 208.061 215.568V217.26H229.593C229.979 215.911 230.891 211.401 231.14 209.737L229.259 209.436C228.558 211.735 227.825 212.911 227.138 213.729L227.129 213.767ZM150.184 213.767C149.277 214.895 147.415 215.022 146.028 215.022C144.64 215.022 143.676 214.985 142.985 214.637C142.205 214.246 142.115 213.16 142.115 210.903V195.992C142.115 191.289 142.463 191.007 145.586 190.749V189.051H131.479V190.749C134.38 191.007 134.728 191.308 134.728 195.992V210.31C134.728 215.013 134.38 215.314 131.088 215.568V217.26H152.601C152.987 215.911 153.904 211.401 154.167 209.737L152.286 209.436C151.586 211.735 150.852 212.911 150.152 213.729L150.184 213.767ZM62.0109 190.772C64.7523 191.031 65.0956 191.332 65.0956 196.015V201.051H56.1141V195.992C56.1141 191.289 56.4621 191.007 59.1095 190.749V189.051H45.2329V190.749C48.3929 191.007 48.7409 191.308 48.7409 195.992V210.31C48.7409 215.013 48.3929 215.314 45.4022 215.568V217.26H59.2882V215.572C56.4668 215.318 56.1235 215.003 56.1235 210.315V203.732H65.105V210.315C65.105 215.017 64.7617 215.318 61.6723 215.572V217.265H75.8169V215.572C72.8263 215.318 72.4783 215.003 72.4783 210.315V195.992C72.4783 191.289 72.8262 191.007 75.9063 190.749V189.051H62.0203V190.749L62.0109 190.772Z"/>
<path fill-rule="evenodd" clip-rule="evenodd" d="M114.967 118.261C123.718 124.374 128.505 143.484 128.505 143.484C133.278 100.693 94.2722 88.4668 94.2722 88.4668C94.2722 88.4668 93.4634 90.7474 94.2722 102.193C95.081 113.638 106.183 112.143 114.962 118.256L114.967 118.261Z" />
<path fill-rule="evenodd" clip-rule="evenodd" d="M91.1312 155.45C94.3288 147.823 88.7377 106.546 88.7377 95.8384C88.7377 85.1312 92.7112 79.0511 92.7112 79.0511C87.1531 75.9851 83.189 62.2261 83.189 62.2261C81.5667 66.0491 76.0132 74.4522 76.0132 74.4522C76.0132 74.4522 91.9353 150.127 81.5667 159.249C71.198 168.372 50.5312 169.971 38.5779 162.353C26.6245 154.735 39.3584 130.231 39.3584 130.231C32.1827 138.634 26.6198 148.57 27.4192 159.249C28.2186 169.929 36.175 180.636 55.29 181.416C74.405 182.197 87.9289 163.077 91.1312 155.455V155.45Z" />
<path fill-rule="evenodd" clip-rule="evenodd" d="M193.14 126.11C180.175 127.582 173.051 149.33 172.478 151.154C172.779 150.341 174.537 146.833 183.585 142.163C193.93 136.789 214.62 148.277 214.62 148.277C205.079 156.68 187.535 157.441 173.211 155.899C158.888 154.357 159.668 123.815 158.883 100.148C158.098 76.4812 153.297 78.7571 153.297 78.7571C153.297 78.7571 154.096 68.0358 143.76 116.94C133.425 165.844 77.6643 178.038 77.6643 178.038C108.737 182.641 131.022 168.12 138.964 152.852C146.906 137.583 152.493 105.476 152.493 105.476C152.493 151.333 156.494 162.774 168.448 168.12C180.401 173.467 203.49 165.849 220.216 159.727C230.862 155.838 243.314 157.446 243.314 157.446L252.859 142.939C252.859 142.939 239.307 143.678 229.776 139.888C220.244 136.097 206.687 124.596 193.14 126.11Z"/>
</svg>
