<svg width="1281" height="560" viewBox="0 0 1281 560" fill="none" xmlns="http://www.w3.org/2000/svg">
<path d="M1100 7C1197.48 15.73 1294.5 70 1269.5 151.5" stroke="white" stroke-width="13.54" stroke-linecap="round" stroke-linejoin="round"/>
<path fill-rule="evenodd" clip-rule="evenodd" d="M579.826 203.123C610.342 222.612 629.248 286.706 629.248 286.706C639.417 141.014 505.507 105.055 505.507 105.055C505.507 105.055 503.086 112.898 507.434 151.574C511.782 190.249 549.198 183.623 579.81 203.108L579.826 203.123Z" fill="white"/>
<path fill-rule="evenodd" clip-rule="evenodd" d="M845.891 224.52C801.916 229.513 777.752 303.282 775.806 309.471C776.827 306.711 782.792 294.812 813.48 278.974C848.57 260.743 918.751 299.709 918.751 299.709C886.388 328.212 826.878 330.796 778.294 325.564C729.71 320.333 732.358 216.737 729.694 136.459C727.03 56.1824 710.745 63.9023 710.745 63.9023C710.745 63.9023 713.457 27.5359 678.398 193.417C643.34 359.299 454.203 400.658 454.203 400.658C559.602 416.273 635.189 367.019 662.129 315.229C689.069 263.439 708.018 154.531 708.018 154.531C708.018 310.077 721.591 348.883 762.137 367.019C802.682 385.154 880.997 359.315 937.732 338.548C973.843 325.357 1016.08 330.812 1016.08 330.812L1048.46 281.606C1048.46 281.606 1002.49 284.11 970.158 271.254C937.827 258.398 891.843 219.384 845.891 224.52Z" fill="white"/>
<path d="M725.853 454.51C732.149 453.896 737.808 452.914 742.83 451.565C747.852 450.216 751.048 449.316 752.418 448.866C750.686 443.035 749.094 437.416 747.641 432.008C746.188 426.599 745.203 422.929 744.684 420.998C744.165 419.066 743.92 417.848 743.95 417.343C743.96 416.761 744.327 416.124 745.052 415.432C745.778 414.74 746.952 414.176 748.574 413.74C750.892 413.118 752.424 414.197 753.172 416.978L764.191 458.004C766.474 466.503 768.792 475.903 771.145 486.206C771.67 488.467 770.078 490.096 766.369 491.092C764.515 491.59 763.287 490.719 762.685 488.478L754.899 457.642C752.469 458.461 749.09 459.451 744.763 460.613C740.514 461.755 735.02 462.734 728.281 463.55C731.02 473.748 734.348 484.286 738.263 495.162C738.672 496.378 738.391 497.489 737.419 498.496C736.426 499.425 735.041 500.128 733.264 500.606C731.564 501.062 730.399 500.423 729.767 498.687C725.815 487.986 722.408 477.304 719.544 466.642L710.527 430.297C710.112 428.752 710.39 427.476 711.362 426.469C712.314 425.385 713.446 424.667 714.76 424.314C716.923 423.733 718.285 424.486 718.845 426.572L725.853 454.51ZM812.9 396.835C814.831 396.316 816.682 396.73 818.452 398.077C820.222 399.424 822.866 402.482 826.384 407.253C834.634 418.539 844.688 437.003 856.546 462.645C856.706 462.933 856.869 463.386 857.035 464.005C857.181 464.545 856.96 465.267 856.375 466.17C855.845 466.975 854.885 467.564 853.495 467.938C852.181 468.291 850.978 468.282 849.885 467.913C848.771 467.467 847.862 466.551 847.159 465.167C846.435 463.704 845.056 460.885 843.023 456.71C838.534 447.396 835.928 442.628 835.206 442.408C834.133 442.116 830.887 442.367 825.467 443.16C820.125 443.933 816.604 444.547 814.904 445.004C813.204 445.46 812.241 445.884 812.015 446.277C810.957 447.886 811.585 457.782 813.901 475.964C813.986 477.515 812.716 478.643 810.089 479.348C807.462 480.054 805.848 479.287 805.246 477.046C803.751 471.483 802.945 460.31 802.827 443.526C802.709 426.742 803.317 415.437 804.652 409.612C806.287 402.131 809.037 397.872 812.9 396.835ZM815.892 409.823C814.733 410.134 813.647 414.112 812.636 421.756C811.603 429.323 811.305 433.918 811.741 435.54C811.845 435.926 811.995 436.176 812.191 436.289C812.975 436.741 815.554 436.628 819.928 435.95C824.301 435.273 827.184 434.747 828.574 434.373C829.965 434 830.717 433.715 830.83 433.519C830.922 433.246 830.834 432.607 830.564 431.602C830.273 430.521 828.089 426.552 824.01 419.695C819.911 412.761 817.205 409.47 815.892 409.823ZM885.498 441.946L883.185 432.875L871.216 384.152C870.967 383.225 871.272 382.356 872.131 381.546C872.99 380.735 874.193 380.122 875.738 379.707C879.446 378.711 881.653 379.526 882.359 382.153C882.587 383.003 883.867 389.618 886.198 401.997C888.606 414.355 890.132 421.732 890.776 424.127C890.776 424.127 891.876 428.222 894.075 436.411C895.632 442.206 896.869 445.27 897.787 445.603C899.05 445.678 900.454 445.508 901.999 445.093L918.376 439.451C922.007 438.476 924.176 439.302 924.881 441.929C925.442 444.015 924.852 445.83 923.113 447.374C921.431 448.82 919.645 449.879 917.755 450.553C915.844 451.149 913.498 451.82 910.716 452.568C898.586 455.826 891.915 457.203 890.703 456.701C890.038 456.382 889.262 454.727 888.375 451.735C887.468 448.665 886.81 446.522 886.4 445.307C886.068 444.071 885.767 442.95 885.498 441.946ZM966.026 355.703C967.958 355.184 969.809 355.598 971.579 356.945C973.349 358.292 975.993 361.351 979.511 366.122C987.761 377.408 997.815 395.872 1009.67 421.514C1009.83 421.802 1010 422.255 1010.16 422.873C1010.31 423.414 1010.09 424.136 1009.5 425.039C1008.97 425.844 1008.01 426.433 1006.62 426.807C1005.31 427.159 1004.1 427.151 1003.01 426.782C1001.9 426.336 1000.99 425.42 1000.29 424.035C999.561 422.573 998.183 419.754 996.15 415.578C991.66 406.264 989.054 401.497 988.333 401.277C987.26 400.985 984.014 401.236 978.594 402.029C973.252 402.801 969.731 403.416 968.031 403.872C966.331 404.329 965.368 404.753 965.142 405.145C964.083 406.755 964.712 416.651 967.028 434.832C967.113 436.383 965.842 437.512 963.216 438.217C960.589 438.923 958.974 438.155 958.372 435.915C956.878 430.352 956.072 419.179 955.954 402.395C955.836 385.611 956.444 374.306 957.779 368.48C959.414 361 962.163 356.741 966.026 355.703ZM969.018 368.692C967.859 369.003 966.774 372.981 965.762 380.625C964.73 388.192 964.432 392.786 964.868 394.409C964.971 394.795 965.121 395.045 965.317 395.158C966.101 395.61 968.68 395.497 973.054 394.819C977.428 394.141 980.31 393.616 981.701 393.242C983.092 392.869 983.844 392.584 983.957 392.388C984.049 392.114 983.96 391.476 983.69 390.471C983.4 389.39 981.215 385.42 977.137 378.564C973.038 371.63 970.332 368.339 969.018 368.692ZM1038.62 400.815L1036.31 391.744L1024.34 343.021C1024.09 342.094 1024.4 341.225 1025.26 340.414C1026.12 339.604 1027.32 338.991 1028.86 338.576C1032.57 337.58 1034.78 338.395 1035.49 341.022C1035.71 341.872 1036.99 348.486 1039.32 360.865C1041.73 373.224 1043.26 380.6 1043.9 382.995C1043.9 382.995 1045 387.09 1047.2 395.28C1048.76 401.075 1050 404.139 1050.91 404.472C1052.18 404.547 1053.58 404.377 1055.13 403.962L1071.5 398.32C1075.13 397.345 1077.3 398.171 1078.01 400.797C1078.57 402.883 1077.98 404.698 1076.24 406.242C1074.56 407.688 1072.77 408.748 1070.88 409.421C1068.97 410.018 1066.62 410.689 1063.84 411.436C1051.71 414.694 1045.04 416.072 1043.83 415.569C1043.16 415.251 1042.39 413.596 1041.5 410.603C1040.59 407.534 1039.94 405.391 1039.53 404.176C1039.2 402.939 1038.89 401.819 1038.62 400.815Z" fill="white"/>
<path d="M410 106.842C815.991 -2.35113 1187.65 4.4069 1221.5 132.501C1235.61 185.884 1188.17 282.482 1102.5 347.501" stroke="#EC8045" stroke-width="27.08" stroke-linecap="round" stroke-linejoin="round"/>
<path fill-rule="evenodd" clip-rule="evenodd" d="M499.368 335.212C510.214 309.34 491.25 169.33 491.25 133.012C491.25 96.6932 504.727 76.0696 504.727 76.0696C485.874 65.6701 472.428 19 472.428 19C466.926 31.9675 448.088 60.4704 448.088 60.4704C448.088 60.4704 502.096 317.156 466.926 348.099C431.755 379.043 361.655 384.466 321.109 358.626C280.564 332.787 323.757 249.671 323.757 249.671C299.417 278.174 280.548 311.876 283.26 348.099C285.971 384.322 312.959 420.641 377.796 423.288C442.633 425.936 488.506 361.083 499.368 335.227V335.212Z" fill="white"/>
<path d="M666 473.5C332.627 542.573 44.893 492.849 16.3812 393.04C-2.36497 327.394 90.887 241.891 249.757 164" stroke="#EC8045" stroke-width="27.08" stroke-linecap="round" stroke-linejoin="round"/>
<path d="M395.84 196.201C384.44 161.041 375.34 144.41 354.66 120.47C380.01 101.59 393.28 75.5405 400.19 47.7305C406.87 77.0805 415.72 95.7306 440.19 122.441C418.61 145.781 406.32 159.831 395.84 196.201Z" fill="#EB8046" stroke="#EC8045" stroke-width="5.05" stroke-linecap="round" stroke-linejoin="round"/>
<path d="M358.2 188.96C345.2 148.51 334.74 129.39 311 101.88C340.25 80.08 355.59 50.04 363.63 18C371.23 51.78 381.37 73.21 409.46 103.91C384.55 130.84 370.36 147.06 358.2 188.96Z" stroke="white" stroke-width="15.16" stroke-linecap="round" stroke-linejoin="round"/>
<path d="M1153.84 380.201C1142.44 345.041 1133.34 328.41 1112.66 304.47C1138.01 285.59 1151.28 259.54 1158.19 231.73C1164.87 261.08 1173.72 279.731 1198.19 306.441C1176.61 329.781 1164.32 343.831 1153.84 380.201Z" fill="#EB8046" stroke="#EC8045" stroke-width="5.05" stroke-linecap="round" stroke-linejoin="round"/>
<path d="M1147.2 391.96C1134.2 351.51 1123.74 332.39 1100 304.88C1129.25 283.08 1144.59 253.04 1152.63 221C1160.23 254.78 1170.37 276.21 1198.46 306.91C1173.55 333.84 1159.36 350.06 1147.2 391.96Z" stroke="white" stroke-width="15.16" stroke-linecap="round" stroke-linejoin="round"/>
<path d="M199.5 532.5C100.5 523 56.5 503 23 465.5" stroke="white" stroke-width="13.54" stroke-linecap="round" stroke-linejoin="round"/>
</svg>
