<svg width="275" height="275" viewBox="0 0 275 275" fill="white" xmlns="http://www.w3.org/2000/svg">
<path d="M137.589 7.80815C103.171 7.81937 70.1668 21.4967 45.8299 45.8336C21.4929 70.1705 7.81565 103.175 7.80443 137.593V137.64C7.81565 172.057 21.4929 205.062 45.8299 229.399C70.1668 253.736 103.171 267.413 137.589 267.424H137.636C172.054 267.416 205.061 253.739 229.398 229.402C253.736 205.064 267.412 172.058 267.421 137.64V137.593C267.41 103.173 253.73 70.1659 229.39 45.8286C205.05 21.4913 172.042 7.81563 137.622 7.80815H137.589ZM137.589 0.646487H137.631C155.613 0.648339 173.418 4.19217 190.029 11.0756C206.641 17.959 221.734 28.0472 234.446 40.7641C247.159 53.481 257.242 68.5775 264.12 85.1915C270.997 101.805 274.535 119.611 274.531 137.593V137.635C274.53 155.617 270.987 173.422 264.105 190.034C257.222 206.646 247.134 221.74 234.418 234.453C221.701 247.166 206.605 257.249 189.991 264.127C173.377 271.005 155.571 274.543 137.589 274.539H137.542C119.561 274.537 101.756 270.993 85.145 264.11C68.5337 257.226 53.4409 247.138 40.7288 234.421C28.0167 221.704 17.9341 206.608 11.0569 189.994C4.17966 173.38 0.642525 155.574 0.647466 137.593V137.546C0.649318 119.565 4.19299 101.76 11.0761 85.1491C17.9593 68.5378 28.047 53.445 40.7634 40.7325C53.4798 28.0201 68.5758 17.937 85.1892 11.0589C101.803 4.18095 119.608 0.642782 137.589 0.646487Z" fill="#EB8046"/>
<path fill-rule="evenodd" clip-rule="evenodd" d="M115.043 107.035C123.794 113.148 128.581 132.258 128.581 132.258C133.354 89.4668 94.3477 77.2407 94.3477 77.2407C94.3477 77.2407 93.5389 79.5214 94.3477 90.9669C95.1566 102.412 106.259 100.917 115.038 107.03L115.043 107.035Z" fill="white"/>
<path fill-rule="evenodd" clip-rule="evenodd" d="M91.2069 144.224C94.4045 136.597 88.8134 95.3196 88.8134 84.6123C88.8134 73.9051 92.7869 67.825 92.7869 67.825C87.2287 64.7591 83.2647 51 83.2647 51C81.6424 54.823 76.0889 63.2261 76.0889 63.2261C76.0889 63.2261 92.011 138.901 81.6424 148.023C71.2737 157.146 50.6069 158.745 38.6536 151.127C26.7002 143.509 39.4341 119.005 39.4341 119.005C32.2584 127.408 26.6955 137.344 27.4949 148.023C28.2943 158.702 36.2506 169.41 55.3657 170.19C74.4807 170.971 88.0046 151.851 91.2069 144.229V144.224Z" fill="white"/>
<path fill-rule="evenodd" clip-rule="evenodd" d="M193.215 114.884C180.251 116.355 173.127 138.104 172.553 139.928C172.854 139.115 174.613 135.607 183.66 130.937C194.005 125.563 214.696 137.05 214.696 137.05C205.155 145.454 187.61 146.215 173.287 144.673C158.964 143.131 159.744 112.589 158.959 88.922C158.174 65.2551 153.372 67.531 153.372 67.531C153.372 67.531 154.172 56.8097 143.836 105.714C133.5 154.618 77.74 166.812 77.74 166.812C108.813 171.415 131.097 156.894 139.04 141.626C146.982 126.357 152.568 94.2497 152.568 94.2497C152.568 140.107 156.57 151.548 168.523 156.894C180.477 162.241 203.565 154.623 220.291 148.501C230.938 144.612 243.389 146.22 243.389 146.22L252.935 131.713C252.935 131.713 239.383 132.452 229.851 128.661C220.32 124.871 206.763 113.369 193.215 114.884Z" fill="white"/>
<path d="M78.8257 191C79.9457 191 80.5057 191.54 80.5057 192.62L80.2657 207.02C83.2657 207.54 86.1257 207.8 88.8457 207.8C91.6857 207.8 93.3457 207.78 93.8257 207.74C93.7457 203.66 93.7057 200.74 93.7057 198.98V193.28C93.7057 192.36 93.7457 191.74 93.8257 191.42C93.9457 191.1 94.2257 190.84 94.6657 190.64C95.1457 190.4 95.7657 190.28 96.5257 190.28C97.7257 190.28 98.3257 191 98.3257 192.44V213.68C98.3257 217.48 98.2257 222.32 98.0257 228.2C97.9457 229.36 96.9657 229.94 95.0857 229.94C94.1257 229.94 93.6457 229.36 93.6457 228.2L93.8857 212.3C92.5257 212.38 91.2057 212.42 89.9257 212.42C86.6857 212.42 83.4657 212.18 80.2657 211.7C80.2657 216.98 80.5057 222.5 80.9857 228.26C81.0257 228.9 80.7457 229.4 80.1457 229.76C79.5057 230.08 78.7457 230.24 77.8657 230.24C76.9857 230.24 76.5057 229.78 76.4257 228.86C75.9057 223.38 75.6457 217.78 75.6457 212.06L76.0057 193.34C76.0057 192.58 76.2857 192 76.8457 191.6C77.4057 191.2 78.0657 191 78.8257 191ZM110.312 195.56C112.032 192.16 113.912 190.46 115.952 190.46C116.992 190.46 117.832 190.9 118.472 191.78C119.192 192.78 120.072 194.6 121.112 197.24C123.632 203.8 126.092 214.02 128.492 227.9C128.572 228.34 128.492 228.82 128.252 229.34C128.012 229.82 127.372 230.06 126.332 230.06C125.692 230.06 125.112 229.9 124.592 229.58C124.112 229.22 123.792 228.66 123.632 227.9L122.732 223.28C121.772 218.2 121.132 215.56 120.812 215.36C120.332 215.08 118.732 214.78 116.012 214.46C113.132 214.14 111.352 213.98 110.672 213.98C109.792 213.98 109.272 214.06 109.112 214.22C108.432 214.86 107.452 219.72 106.172 228.8C106.012 229.56 105.252 229.94 103.892 229.94C102.532 229.94 101.852 229.36 101.852 228.2C101.852 225.36 102.912 219.86 105.032 211.7C107.112 203.7 108.872 198.32 110.312 195.56ZM118.352 202.94C117.272 199.06 116.392 197.12 115.712 197.12C115.152 197.12 114.112 198.9 112.592 202.46C111.112 205.94 110.372 208.12 110.372 209C110.372 209.2 110.412 209.34 110.492 209.42C110.812 209.74 112.072 210.02 114.272 210.26C116.272 210.5 117.832 210.62 118.952 210.62C119.472 210.62 119.772 210.58 119.852 210.5C119.932 210.34 119.972 210.02 119.972 209.54C119.972 208.98 119.432 206.78 118.352 202.94ZM131.449 226.76L131.329 221.66L131.389 216.98L131.929 191.9C131.929 191.42 132.189 191.04 132.709 190.76C133.229 190.48 133.889 190.34 134.689 190.34C136.609 190.34 137.569 191.02 137.569 192.38L136.849 202.46C136.409 209.06 136.189 212.82 136.189 213.74V220.1C136.189 223.1 136.389 224.74 136.789 225.02C137.469 225.22 138.169 225.32 138.889 225.32L147.529 224.72C149.409 224.72 150.349 225.4 150.349 226.76C150.349 227.8 149.829 228.6 148.789 229.16C147.989 229.56 147.169 229.82 146.329 229.94C145.529 230.02 144.429 230.06 143.029 230.06C136.149 230.06 132.449 229.86 131.929 229.46C131.689 229.26 131.529 228.36 131.449 226.76ZM161.933 195.56C163.653 192.16 165.533 190.46 167.573 190.46C168.613 190.46 169.453 190.9 170.093 191.78C170.813 192.78 171.693 194.6 172.733 197.24C175.253 203.8 177.713 214.02 180.113 227.9C180.193 228.34 180.113 228.82 179.873 229.34C179.633 229.82 178.993 230.06 177.953 230.06C177.313 230.06 176.733 229.9 176.213 229.58C175.733 229.22 175.413 228.66 175.253 227.9L174.353 223.28C173.393 218.2 172.753 215.56 172.433 215.36C171.953 215.08 170.353 214.78 167.633 214.46C164.753 214.14 162.973 213.98 162.293 213.98C161.413 213.98 160.893 214.06 160.733 214.22C160.053 214.86 159.073 219.72 157.793 228.8C157.633 229.56 156.873 229.94 155.513 229.94C154.153 229.94 153.473 229.36 153.473 228.2C153.473 225.36 154.533 219.86 156.653 211.7C158.733 203.7 160.493 198.32 161.933 195.56ZM169.973 202.94C168.893 199.06 168.013 197.12 167.333 197.12C166.773 197.12 165.733 198.9 164.213 202.46C162.733 205.94 161.993 208.12 161.993 209C161.993 209.2 162.033 209.34 162.113 209.42C162.433 209.74 163.693 210.02 165.893 210.26C167.893 210.5 169.453 210.62 170.573 210.62C171.093 210.62 171.393 210.58 171.473 210.5C171.553 210.34 171.593 210.02 171.593 209.54C171.593 208.98 171.053 206.78 169.973 202.94ZM183.07 226.76L182.95 221.66L183.01 216.98L183.55 191.9C183.55 191.42 183.81 191.04 184.33 190.76C184.85 190.48 185.51 190.34 186.31 190.34C188.23 190.34 189.19 191.02 189.19 192.38L188.47 202.46C188.03 209.06 187.81 212.82 187.81 213.74V220.1C187.81 223.1 188.01 224.74 188.41 225.02C189.09 225.22 189.79 225.32 190.51 225.32L199.15 224.72C201.03 224.72 201.97 225.4 201.97 226.76C201.97 227.8 201.45 228.6 200.41 229.16C199.61 229.56 198.79 229.82 197.95 229.94C197.15 230.02 196.05 230.06 194.65 230.06C187.77 230.06 184.07 229.86 183.55 229.46C183.31 229.26 183.15 228.36 183.07 226.76Z" fill="white"/>
</svg>
