<svg width="30" height="29" viewBox="0 0 30 29" fill="none" xmlns="http://www.w3.org/2000/svg">
<path d="M8.86364 0C3.97669 0 0 3.78586 0 8.43828V20.1221C0 24.7745 3.97669 28.5603 8.86364 28.5603H21.1364C26.0233 28.5603 30 24.7745 30 20.1221V8.43828C30 3.78586 26.0233 0 21.1364 0H8.86364ZM8.86364 1.2982H21.1364C25.2862 1.2982 28.6364 4.48755 28.6364 8.43828V20.1221C28.6364 24.0728 25.2862 27.2621 21.1364 27.2621H8.86364C4.71376 27.2621 1.36364 24.0728 1.36364 20.1221V8.43828C1.36364 4.48755 4.71376 1.2982 8.86364 1.2982ZM23.1818 5.19279C22.8202 5.19279 22.4733 5.32956 22.2176 5.57302C21.9618 5.81648 21.8182 6.14668 21.8182 6.49098C21.8182 6.83529 21.9618 7.16549 22.2176 7.40895C22.4733 7.65241 22.8202 7.78918 23.1818 7.78918C23.5435 7.78918 23.8903 7.65241 24.1461 7.40895C24.4018 7.16549 24.5455 6.83529 24.5455 6.49098C24.5455 6.14668 24.4018 5.81648 24.1461 5.57302C23.8903 5.32956 23.5435 5.19279 23.1818 5.19279ZM15 7.14008C10.8659 7.14008 7.5 10.3445 7.5 14.2802C7.5 18.2158 10.8659 21.4202 15 21.4202C19.1341 21.4202 22.5 18.2158 22.5 14.2802C22.5 10.3445 19.1341 7.14008 15 7.14008ZM15 8.43828C18.3971 8.43828 21.1364 11.0461 21.1364 14.2802C21.1364 17.5142 18.3971 20.1221 15 20.1221C11.6029 20.1221 8.86364 17.5142 8.86364 14.2802C8.86364 11.0461 11.6029 8.43828 15 8.43828Z" fill="#EB8046"/>
</svg>
