<svg width="2764" height="2382" viewBox="0 0 2764 2382" fill="none" xmlns="http://www.w3.org/2000/svg">
<path d="M2248.15 1298.39C2271.26 1307.08 2289.04 1322.63 2305.25 1335.29C2399.49 1071.51 2098.03 962.66 2098.02 962.66C2108.76 939.06 2112.02 925.9 2111.95 893.33C2111.79 742.89 2005.78 424.09 1264.33 437.4C587.01 449.55 444.9 779.89 444.75 940.4C444.75 973.1 450.75 996.56 461.16 1014.08C461.16 1014.08 243.09 1145.08 336.25 1243.85C356 1264.8 401.62 1294.56 426.14 1296.49C392.2 1366.66 396.33 1414.35 439.44 1484.98C466.56 1439.19 475.13 1438.81 500.44 1418.98C505.44 1429.61 507.64 1429.28 529.68 1441.32C529.68 1441.32 502.26 1540.26 544.91 1632.44C578.31 1704.64 919.83 1783.9 1304.34 1783.9C1688.85 1783.9 2029.27 1741.35 2061.19 1707.9C2093.11 1674.45 2099.94 1596.53 2098.04 1491.12C2135.04 1483.12 2159.23 1475.63 2172.73 1463.02C2203.13 1434.65 2199.3 1325.63 2199.3 1325.63C2199.3 1325.63 2227.33 1319.78 2248.15 1298.39Z" fill="white" stroke="white" stroke-width="36" stroke-linecap="round" stroke-linejoin="round"/>
<path d="M583.64 1374.79C583.64 1374.79 545.8 1519.79 583.64 1574.28C624.71 1633.44 960.41 1720.12 1308.48 1720.12C1656.55 1720.12 1964.74 1681.6 1993.63 1651.33C2022.52 1621.06 2028.7 1550.51 2026.99 1455.08C1710.22 1394.05 583.64 1374.79 583.64 1374.79Z" fill="#EB8046" stroke="#2B2B2C" stroke-width="36" stroke-linecap="round" stroke-linejoin="round"/>
<path d="M553.17 1275.74C553.17 1275.74 547.81 1361.61 604.08 1389.93C705.4 1440.93 937.26 1510.41 1351.13 1500.93C2070.22 1484.42 2096.13 1439.23 2123.65 1413.55C2151.17 1387.87 2147.65 1289.17 2147.65 1289.17C2147.65 1289.17 1397.17 861.391 553.17 1275.74Z" fill="#884529" stroke="#2B2B2C" stroke-width="36" stroke-miterlimit="10"/>
<path d="M2556.33 812.191C2620.75 1010.93 2108.23 1347.83 1403.41 1535.76C698.59 1723.69 114.16 1662.17 74.3904 1478C22.1104 1235.86 531.53 981.861 1236.39 793.921C1941.25 605.981 2490.29 608.471 2556.33 812.191Z" stroke="white" stroke-width="67" stroke-linejoin="round"/>
<path d="M545.18 1023.25C545.18 1023.25 347.769 1141.82 432.1 1231.25C487.74 1290.25 563.539 1235.68 663.939 1255.85C708.179 1264.73 704.049 1302.33 748.079 1320.68C792.109 1339.03 825.32 1297.68 910.88 1304.68C1001.68 1312.02 999.39 1341.82 1057.17 1346.41C1137.71 1352.8 1194.92 1295.51 1284.95 1299.17C1374.98 1302.83 1399.74 1310.57 1572.18 1291.38C1688.99 1278.38 1717.12 1324.86 1762.5 1324.86C1852.84 1324.86 1861.55 1257.44 1943.64 1256.98C2037.21 1256.46 2043.16 1292.3 2114.24 1291.84C2244.49 1291 2271.24 1189.75 2271.24 1189.75L1987.54 987.391L545.18 1023.25Z" fill="#EBAE45" stroke="#2B2B2C" stroke-width="36" stroke-linecap="round" stroke-linejoin="round"/>
<path d="M613.06 1069.86C613.06 1069.86 441.27 1280.78 448.61 1422C589.86 1183.53 1142.01 1090 1362.14 1447.68C1591.44 1045.95 2059.21 1100.98 2284.84 1277.08C2285.7 1044.08 2021.97 985.24 2021.97 985.24L613.06 1069.86Z" fill="#20895E" stroke="#2B2B2C" stroke-width="36" stroke-linecap="round" stroke-linejoin="round"/>
<path d="M597.2 1063.86C558.74 1048.04 530.27 1023.97 530.33 956.551C530.46 811.201 659.11 512.171 1272.25 501.161C1943.46 489.111 2039.43 777.711 2039.57 913.901C2039.64 981.321 2012.89 1012.96 1931.72 1050.11C1771 1123.67 840.2 1163.83 597.2 1063.86Z" fill="#EB8046" stroke="#2B2B2C" stroke-width="36" stroke-linecap="round" stroke-linejoin="round"/>
<path d="M1470.73 2067.24L1444.34 2063.25L1447.9 2053.05L1472.25 2057.18L1470.73 2067.24Z" fill="white"/>
<path d="M1581.18 2344.91L1569.88 2320.74L1585.36 2323.05L1589.43 2339.22L1581.18 2344.91Z" fill="white"/>
<path d="M1680.17 2021.11L1653.59 2018.77L1663.36 2006.53L1693.22 2016.79L1680.17 2021.11Z" fill="white"/>
<path d="M1779.85 1987.11L1758.8 1989.7L1764.36 1978.57L1788.03 1980.78L1779.85 1987.11Z" fill="white"/>
<path d="M1910.02 1920L1888.98 1922.59L1894.39 1911.77L1918.21 1913.67L1910.02 1920Z" fill="white"/>
<path d="M2238.77 2038.53L2225.78 2035.49L2234.16 2031.32L2244.64 2036.71L2238.77 2038.53Z" fill="white"/>
<path d="M2143.27 1928.34L2130.29 1925.29L2138.67 1921.13L2151.5 1929.92L2143.27 1928.34Z" fill="white"/>
<path d="M2063.89 1822.61L2050.9 1819.57L2059.28 1815.4L2071.32 1824.34L2063.89 1822.61Z" fill="white"/>
<path d="M2080.57 1806.49L2088.65 1808.07L2090.31 1816.6L2080.57 1806.49Z" fill="white"/>
<path d="M2213.28 1702.32L2204.57 1700.45L2203.23 1691.91L2213.28 1702.32Z" fill="white"/>
<path d="M1674.67 2350.62L1649.11 2358.19C1647.56 2358.56 1645.95 2358.56 1644.4 2358.19C1643.03 2357.83 1641.76 2357.18 1640.67 2356.27C1639.58 2355.36 1638.71 2354.23 1638.11 2352.95L1630.76 2337.95L1677.97 2344.12L1674.67 2350.62Z" fill="white"/>
<path d="M1793.87 2318.56L1769.21 2328.71C1767.46 2329.32 1765.57 2329.44 1763.76 2329.05C1762.52 2328.76 1761.35 2328.22 1760.32 2327.47C1759.29 2326.73 1758.42 2325.78 1757.76 2324.69L1748.87 2310.48L1796.47 2311.78L1793.87 2318.56Z" fill="white"/>
<path d="M1904.39 2276.64L1884.48 2285.83C1882.17 2287.16 1879.43 2287.52 1876.86 2286.83C1875.29 2286.37 1873.88 2285.49 1872.78 2284.29L1860.78 2271.6L1908.28 2264.28L1904.39 2276.64Z" fill="white"/>
<path d="M2165.45 2141.5C2165.45 2141.5 2153.17 2148.92 2149.32 2151.74L2149.23 2151.81C2147.28 2153.17 2144.92 2153.82 2142.55 2153.64C2140.18 2153.46 2137.95 2152.46 2136.23 2150.81L2117.23 2132.93L2168.8 2126.18L2165.45 2141.5Z" fill="white"/>
<path d="M2383 1938.91C2383 1938.91 2373.08 1961.91 2373.06 1961.91C2371.96 1964.01 2370.16 1965.67 2367.97 1966.6C2365.78 1967.52 2363.34 1967.66 2361.06 1966.99L2338.26 1957.56L2375.9 1927.44L2383 1938.91Z" fill="white"/>
<path d="M2033.93 2208.37C2033.93 2208.37 2028.73 2216.27 2026.11 2218.16C2022.68 2220.64 2019.51 2221.47 2015.85 2220.46L1993.54 2212.74L2021.22 2195.62L2033.93 2208.37Z" fill="white"/>
<path d="M1449.44 2367.95L1445.76 2355.47L1453.79 2344.06L1460.11 2367.94L1449.44 2367.95Z" fill="white"/>
<path d="M1311.83 2362.74L1287.02 2369.74C1284.39 2370.14 1281.69 2369.74 1279.3 2368.58C1276.9 2367.42 1274.91 2365.56 1273.59 2363.25L1267.59 2346.47L1300.67 2343.2L1311.83 2362.74Z" fill="white"/>
<path d="M921.269 242.789L906.209 252.379L895.359 238.619L915.859 239.859L921.269 242.789Z" fill="white"/>
<path d="M238 448.959L220.5 467.129L211.1 448.929L231.15 439.699L238 448.959Z" fill="white"/>
<path d="M338.201 357.85L320.701 376.02L311.301 355.61L333.491 350.1L338.201 357.85Z" fill="white"/>
<path d="M492.111 238.359L474.621 256.519L466.211 234.189L486.251 231.869L492.111 238.359Z" fill="white"/>
<path d="M624.479 157.51L606.979 175.67L598.189 153.65L623.68 152.1L624.479 157.51Z" fill="white"/>
<path d="M1275.15 13.1698L1257.66 31.3398L1248.56 6.33984L1274.82 8.21979L1275.15 13.1698Z" fill="white"/>
<path d="M1390.07 32.1794L1372.57 50.3494L1370.39 23.3594L1391.72 30.6294L1390.07 32.1794Z" fill="white"/>
<path d="M758.67 95.4003L741.17 113.57L732.77 91.2402L753.26 92.4702L758.67 95.4003Z" fill="white"/>
<path d="M415.129 677.38C415.129 677.38 399.849 693.5 394.129 698.18C391.987 699.834 389.351 700.719 386.645 700.694C383.939 700.669 381.32 699.734 379.209 698.04C375.539 695.04 365.369 685.23 365.369 685.23L395.179 668.35L415.129 677.38Z" fill="white"/>
<path d="M501.5 597.889C501.5 597.889 486.22 614.009 480.5 618.689C478.358 620.343 475.722 621.229 473.016 621.204C470.31 621.178 467.691 620.243 465.58 618.549C461.91 615.549 451.74 605.739 451.74 605.739L481.55 588.859L501.5 597.889Z" fill="white"/>
<path d="M573.22 554.81C573.22 554.81 558.88 565.229 554.03 568.599C549.56 571.719 543.23 572.039 539.12 568.459C535.01 564.879 524.34 552.569 524.34 552.569L555.08 538.77L573.22 554.81Z" fill="white"/>
<path d="M667.561 486.73C667.561 486.73 655.941 499.36 651.561 503C647.371 506.49 640.971 506.18 636.641 502.86C632.891 499.98 622.141 490.72 622.141 490.72L652.611 473.17L667.561 486.73Z" fill="white"/>
<path d="M736.571 450.38L718.001 465.73C715.857 467.556 713.164 468.612 710.351 468.73C707.08 468.892 703.879 467.748 701.451 465.55C697.951 462.19 688.211 451.39 688.211 451.39L720.211 437.57L736.571 450.38Z" fill="white"/>
<path d="M1149.12 327.169L1123.77 339.579C1121.22 340.773 1118.33 341.073 1115.59 340.429C1110.14 339.059 1098.87 317.509 1098.87 317.509L1133.44 313.029L1149.12 327.169Z" fill="white"/>
<path d="M1262 326.67L1228.45 331.16C1225.64 331.425 1222.82 330.738 1220.45 329.21C1215.77 326.09 1211.7 302.6 1211.7 302.6L1246.45 309.39L1262 326.67Z" fill="white"/>
<path d="M1367.93 300.46L1339.18 312C1336.52 312.915 1333.62 312.915 1330.96 312C1325.67 310.07 1316.16 288.21 1316.16 288.21L1351.54 286.59L1367.93 300.46Z" fill="white"/>
<path d="M864.67 391.11C864.67 391.11 854.8 399.79 852.2 401.66C848.43 404.37 845.14 406.29 841.07 405.58C837 404.87 818.07 395.47 818.07 395.47L845.78 370.4L864.67 391.11Z" fill="white"/>
<path d="M993.08 186.15C993.08 186.15 1011.98 184.99 1015.18 185C1019.83 185 1023.62 185.37 1026.5 188.33C1029.38 191.29 1035.62 205.4 1035.62 205.4L1000.14 214.58L993.08 186.15Z" fill="white"/>
<path d="M986.001 152.67C986.001 152.67 965.471 155.56 962.281 155.35C957.641 155.06 953.881 154.46 951.191 151.35C948.501 148.24 941.961 128.43 941.961 128.43L976.461 125.07L986.001 152.67Z" fill="white"/>
<path d="M2062.74 656.891C2337.24 648.891 2519.98 700.051 2556.33 812.191C2620.75 1010.93 2108.23 1347.83 1403.41 1535.76C698.59 1723.69 114.16 1662.17 74.39 1478C51 1369.7 140 1259.06 308.45 1153" stroke="white" stroke-width="67" stroke-linejoin="round"/>
<path d="M2248.74 566.23C2476.11 586.6 2626.8 656.94 2664.74 777.13" stroke="white" stroke-width="36" stroke-linecap="round" stroke-linejoin="round"/>
<path d="M124.93 1167.1C194.61 1107.83 284.19 1050.29 390.18 995.189" stroke="white" stroke-width="36" stroke-linecap="round" stroke-linejoin="round"/>
<path d="M448.38 1734.83C224.38 1751.76 96.3797 1664.38 18.4297 1592.18" stroke="white" stroke-width="36" stroke-linecap="round" stroke-linejoin="round"/>
<path d="M661.4 1652.53C661.4 1652.53 480.71 1664.53 414.67 1645.99" stroke="#2B2B2C" stroke-width="20" stroke-linecap="round" stroke-linejoin="round"/>
<path d="M2575.59 864.08C2575.59 864.08 2553.27 985.27 2435.26 1060.13" stroke="#2B2B2C" stroke-width="20" stroke-linecap="round" stroke-linejoin="round"/>
<path d="M1938.59 480.321C1911.49 396.791 1889.89 357.321 1840.75 300.421C1900.99 255.581 1932.5 193.701 1948.92 127.631C1964.77 197.361 1985.79 241.631 2043.92 305.101C1992.66 360.541 1963.47 393.931 1938.59 480.321Z" fill="#EB8046" stroke="#EC8045" stroke-width="12" stroke-linecap="round" stroke-linejoin="round"/>
<path d="M1849.17 463.119C1818.17 367.019 1793.45 321.619 1737.04 256.269C1806.52 204.479 1842.98 133.139 1862.04 57.0293C1880.1 137.259 1904.17 188.169 1970.9 261.089C1911.77 325.059 1878.06 363.579 1849.17 463.119Z" stroke="white" stroke-width="36" stroke-linecap="round" stroke-linejoin="round"/>
<path d="M786.2 2153C762.88 2081.09 744.28 2047.1 701.98 1998.14C753.83 1959.55 780.98 1906.28 795.09 1849.41C808.74 1909.41 826.83 1947.53 876.85 2002.17C832.74 2049.87 807.61 2078.61 786.2 2153Z" fill="#EB8046" stroke="#EC8045" stroke-width="12" stroke-linecap="round" stroke-linejoin="round"/>
<path d="M709.231 2138.17C682.581 2055.45 661.231 2016.37 612.711 1960.12C672.521 1915.54 703.901 1854.12 720.331 1788.62C735.881 1857.68 756.601 1901.5 814.041 1964.26C763.111 2019.33 734.101 2052.49 709.231 2138.17Z" stroke="white" stroke-width="36" stroke-linecap="round" stroke-linejoin="round"/>
<path d="M253.25 883.941C272.16 883.941 287.49 868.611 287.49 849.701C287.49 830.791 272.16 815.461 253.25 815.461C234.34 815.461 219.01 830.791 219.01 849.701C219.01 868.611 234.34 883.941 253.25 883.941Z" fill="white"/>
<path d="M1145.68 1927.04C1164.59 1927.04 1179.92 1911.71 1179.92 1892.8C1179.92 1873.89 1164.59 1858.56 1145.68 1858.56C1126.77 1858.56 1111.44 1873.89 1111.44 1892.8C1111.44 1911.71 1126.77 1927.04 1145.68 1927.04Z" fill="white"/>
<path d="M2729.68 1071.51C2748.59 1071.51 2763.92 1056.18 2763.92 1037.27C2763.92 1018.36 2748.59 1003.03 2729.68 1003.03C2710.77 1003.03 2695.44 1018.36 2695.44 1037.27C2695.44 1056.18 2710.77 1071.51 2729.68 1071.51Z" fill="white"/>
<path d="M964.059 78.89C954.579 65.98 916.789 47.46 889.779 61.07" stroke="white" stroke-width="36" stroke-linecap="round" stroke-linejoin="round"/>
<path d="M1171.58 44.1605C1162.1 31.2505 1131.01 16.2305 1095.4 20.1605" stroke="white" stroke-width="36" stroke-linecap="round" stroke-linejoin="round"/>
<path d="M888 314.561C904.28 333.861 941.31 351.891 976.11 343.341" stroke="white" stroke-width="36" stroke-linecap="round" stroke-linejoin="round"/>
<path d="M238.061 456.32C264.061 519.17 358.631 631.61 404.171 663.14" stroke="white" stroke-width="36" stroke-linecap="round" stroke-linejoin="round"/>
<path d="M338.199 367.461C360.049 431.871 444.699 551.461 488.089 585.901" stroke="white" stroke-width="36" stroke-linecap="round" stroke-linejoin="round"/>
<path d="M409.75 514.311C361.36 531.591 337.87 546.06 306.4 579.73" stroke="white" stroke-width="36" stroke-linecap="round" stroke-linejoin="round"/>
<path d="M621.461 177.561C623.811 254.451 679.401 384.881 725.721 436.091" stroke="white" stroke-width="36" stroke-linecap="round" stroke-linejoin="round"/>
<path d="M752.301 110.449C753.621 188.849 810.631 324.449 854.801 376.079" stroke="white" stroke-width="36" stroke-linecap="round" stroke-linejoin="round"/>
<path d="M625.5 170C652.5 225.92 766.37 349.2 844.03 383.63" stroke="white" stroke-width="36" stroke-linecap="round" stroke-linejoin="round"/>
<path d="M982.299 135C982.299 135 990.3 51.4602 906.06 68.4602C787.51 92.3802 884.479 350.79 969.269 344.46C1006.17 341.71 1047.7 281.01 1019.57 213.61" stroke="white" stroke-width="36" stroke-linecap="round" stroke-linejoin="round"/>
<path d="M1015.44 215.089C992.669 211.569 946.619 226.759 919.619 240.369" stroke="white" stroke-width="36" stroke-linecap="round" stroke-linejoin="round"/>
<path d="M492.109 252.141C513.219 318.931 611.279 437.431 655.209 473.811" stroke="white" stroke-width="36" stroke-linecap="round" stroke-linejoin="round"/>
<path d="M490.001 249.43C452.191 333.51 484.661 439.78 565.081 538.77" stroke="white" stroke-width="36" stroke-linecap="round" stroke-linejoin="round"/>
<path d="M568.19 397.801C544.69 401.051 519.6 415.941 496.99 437.351" stroke="white" stroke-width="36" stroke-linecap="round" stroke-linejoin="round"/>
<path d="M1386.44 47.8496C1326.31 107.85 1326.07 192.53 1360.99 283.95" stroke="white" stroke-width="36" stroke-linecap="round" stroke-linejoin="round"/>
<path d="M1274.55 26.2207C1274.23 63.3707 1293.45 99.9807 1336.04 113.751" stroke="white" stroke-width="36" stroke-linecap="round" stroke-linejoin="round"/>
<path d="M1077.5 26.7305C1066.5 104.37 1104.1 248.79 1142.32 310.55" stroke="white" stroke-width="36" stroke-linecap="round" stroke-linejoin="round"/>
<path d="M1077.81 38.4491C1136.81 28.3591 1176.25 26.7291 1185.73 70.5491C1197.56 125.259 1138.53 135.869 1083.39 167.099" stroke="white" stroke-width="36" stroke-linecap="round" stroke-linejoin="round"/>
<path d="M1259.34 308.91C1244.05 220.25 1219.06 159.1 1170.44 127.91" stroke="white" stroke-width="36" stroke-linecap="round" stroke-linejoin="round"/>
<path d="M1468.38 2074.78C1451.76 2140.73 1465.79 2288.68 1483.54 2341.15" stroke="white" stroke-width="36" stroke-linecap="round" stroke-linejoin="round"/>
<path d="M1297.92 2078.17C1274.83 2145.28 1285.11 2285.08 1308.6 2345.01" stroke="white" stroke-width="36" stroke-linecap="round" stroke-linejoin="round"/>
<path d="M1388.59 2140.26C1385.59 2190.83 1337.82 2190.06 1283.46 2208.35" stroke="white" stroke-width="36" stroke-linecap="round" stroke-linejoin="round"/>
<path d="M1293.26 2078.17C1337.81 2071.57 1391.26 2095.3 1388.59 2140.26" stroke="white" stroke-width="36" stroke-linecap="round" stroke-linejoin="round"/>
<path d="M1993.4 1894.53C2016.9 1969.34 2104.51 2079.44 2161.51 2116.46" stroke="white" stroke-width="36" stroke-linecap="round" stroke-linejoin="round"/>
<path d="M1986.34 1893.52C2015.88 1886.93 2043.5 1865.46 2061.15 1839.2" stroke="white" stroke-width="36" stroke-linecap="round" stroke-linejoin="round"/>
<path d="M2146.6 2131.88C2167.09 2119.88 2225.31 2081.88 2238.06 2053.47" stroke="white" stroke-width="36" stroke-linecap="round" stroke-linejoin="round"/>
<path d="M2064.93 2014.69C2087.01 2005.48 2134.03 1973.69 2142.93 1945.69" stroke="white" stroke-width="36" stroke-linecap="round" stroke-linejoin="round"/>
<path d="M1787.42 1998.77C1789.78 2075.66 1850.42 2209.29 1896.75 2260.49" stroke="white" stroke-width="36" stroke-linecap="round" stroke-linejoin="round"/>
<path d="M1917.26 1931.66C1918.58 2010.07 1975.6 2145.66 2019.76 2197.29" stroke="white" stroke-width="36" stroke-linecap="round" stroke-linejoin="round"/>
<path d="M1787.42 1998.77C1818.07 2052.77 1939.97 2168.13 2019.76 2197.29" stroke="white" stroke-width="36" stroke-linecap="round" stroke-linejoin="round"/>
<path d="M2183.5 1766.41C2224.32 1824.86 2299.68 1896.92 2367.84 1929.92" stroke="white" stroke-width="36" stroke-linecap="round" stroke-linejoin="round"/>
<path d="M2104.23 1805.19C2138.01 1794.91 2183.46 1749.61 2201.11 1715.59" stroke="white" stroke-width="36" stroke-linecap="round" stroke-linejoin="round"/>
<path d="M1687.18 2033.72C1690.63 2103.72 1752.49 2256.2 1785.73 2302.55" stroke="white" stroke-width="36" stroke-linecap="round" stroke-linejoin="round"/>
<path d="M1680.17 2032.72C1622.26 2104.44 1618.43 2216.8 1671.08 2332.97" stroke="white" stroke-width="36" stroke-linecap="round" stroke-linejoin="round"/>
<path d="M1725 2191.29C1701.44 2188.47 1666.12 2198.29 1638.82 2213.29" stroke="white" stroke-width="36" stroke-linecap="round" stroke-linejoin="round"/>
<path d="M1466.84 2363.32C1490.55 2364.04 1546.23 2361.39 1572.1 2344.06" stroke="white" stroke-width="36" stroke-linecap="round" stroke-linejoin="round"/>
<path d="M1445.77 2071C1429.15 2137 1444.14 2295.06 1461.88 2347.53" stroke="#EB8046" stroke-width="36" stroke-linecap="round" stroke-linejoin="round"/>
<path d="M1276.76 2071C1253.67 2138.11 1260.45 2278.27 1282.06 2335.86" stroke="#EB8046" stroke-width="36" stroke-linecap="round" stroke-linejoin="round"/>
<path d="M1276.91 2078.17C1321.46 2071.57 1370.25 2083.3 1367.57 2128.25C1364.57 2178.82 1316.81 2178.05 1262.45 2196.34" stroke="#EB8046" stroke-width="36" stroke-linecap="round" stroke-linejoin="round"/>
<path d="M1763.41 1996.77C1765.76 2073.66 1826.41 2207.29 1872.74 2258.49" stroke="#EB8046" stroke-width="36" stroke-linecap="round" stroke-linejoin="round"/>
<path d="M1893.25 1929.66C1894.57 2008.07 1951.58 2143.66 1995.75 2195.29" stroke="#EB8046" stroke-width="36" stroke-linecap="round" stroke-linejoin="round"/>
<path d="M1968.81 1884.39C1988.03 1960.39 2074.54 2079.39 2129.35 2119.53" stroke="#EB8046" stroke-width="36" stroke-linecap="round" stroke-linejoin="round"/>
<path d="M2150.08 1758.64C2187.81 1819.88 2277.92 1904.37 2345.61 1941.52" stroke="#EB8046" stroke-width="36" stroke-linecap="round" stroke-linejoin="round"/>
<path d="M1763.41 1996.77C1793.67 2056.05 1915.32 2190.45 1995.75 2195.29" stroke="#EB8046" stroke-width="36" stroke-linecap="round" stroke-linejoin="round"/>
<path d="M1658.16 2023.71C1661.61 2093.71 1728.87 2252.07 1762.16 2298.41" stroke="#EB8046" stroke-width="36" stroke-linecap="round" stroke-linejoin="round"/>
<path d="M1658.16 2023.71C1600.24 2095.43 1592.25 2210.71 1644.9 2326.84" stroke="#EB8046" stroke-width="36" stroke-linecap="round" stroke-linejoin="round"/>
<path d="M1697.8 2179.51C1674.09 2178.79 1639.8 2191.7 1613.9 2209.03" stroke="#EB8046" stroke-width="36" stroke-linecap="round" stroke-linejoin="round"/>
<path d="M1461.88 2347.48C1485.6 2348.2 1542.23 2345.38 1568.1 2328.05" stroke="#EB8046" stroke-width="36" stroke-linecap="round" stroke-linejoin="round"/>
<path d="M1968.81 1883.38C1998.67 1878.47 2029.97 1855.38 2049.08 1830.18" stroke="#EB8046" stroke-width="36" stroke-linecap="round" stroke-linejoin="round"/>
<path d="M2092.58 1793.09C2126.37 1782.81 2171.81 1737.51 2189.46 1703.49" stroke="#EB8046" stroke-width="36" stroke-linecap="round" stroke-linejoin="round"/>
<path d="M2129.91 2120.25C2151.04 2109.46 2211.32 2074.78 2225.66 2047.14" stroke="#EB8046" stroke-width="36" stroke-linecap="round" stroke-linejoin="round"/>
<path d="M2040.4 2008.81C2063.97 2000.52 2117.76 1966.87 2129.35 1936.42" stroke="#EB8046" stroke-width="36" stroke-linecap="round" stroke-linejoin="round"/>
<path d="M216.051 466.33C242.051 529.18 329.411 638.56 374.951 670.08" stroke="#EB8046" stroke-width="36" stroke-linecap="round" stroke-linejoin="round"/>
<path d="M598.57 171.66C598.27 248.58 654.29 384.22 698.81 436.99" stroke="#EB8046" stroke-width="36" stroke-linecap="round" stroke-linejoin="round"/>
<path d="M730.65 109.061C729.26 187.471 781.57 324.921 823.93 378.061" stroke="#EB8046" stroke-width="36" stroke-linecap="round" stroke-linejoin="round"/>
<path d="M958.999 122.82C958.999 122.82 942.239 38.3703 881.999 60.2203C767.729 101.64 837.129 350.67 951.169 333.32C1001.51 325.65 1021.5 273.68 993.359 206.32" stroke="#EB8046" stroke-width="36" stroke-linecap="round" stroke-linejoin="round"/>
<path d="M1363.47 39.8105C1303.34 99.8105 1296.47 187.181 1331.38 278.601" stroke="#EB8046" stroke-width="36" stroke-linecap="round" stroke-linejoin="round"/>
<path d="M1246.53 24.2207C1246.21 61.3707 1265.43 97.9807 1308.02 111.741" stroke="#EB8046" stroke-width="36" stroke-linecap="round" stroke-linejoin="round"/>
<path d="M1051.69 20.4004C1040.69 98.0504 1077.37 248.34 1112.9 306.29" stroke="#EB8046" stroke-width="36" stroke-linecap="round" stroke-linejoin="round"/>
<path d="M1053.29 27.8794C1100.29 11.3794 1155.63 13.8794 1162.15 63.1994C1169.49 118.689 1117.52 127.859 1062.38 159.099" stroke="#EB8046" stroke-width="36" stroke-linecap="round" stroke-linejoin="round"/>
<path d="M1229 297.539C1213.71 208.879 1194.76 177.389 1148 127.859" stroke="#EB8046" stroke-width="36" stroke-linecap="round" stroke-linejoin="round"/>
<path d="M598.57 171.66C626.78 231.94 743.72 370.46 823.93 378.07" stroke="#EB8046" stroke-width="36" stroke-linecap="round" stroke-linejoin="round"/>
<path d="M313.18 373.461C335 437.871 417.31 556.001 460.69 590.401" stroke="#EB8046" stroke-width="36" stroke-linecap="round" stroke-linejoin="round"/>
<path d="M467.41 252.141C489.26 316.561 587.29 440.601 630.67 475.001" stroke="#EB8046" stroke-width="36" stroke-linecap="round" stroke-linejoin="round"/>
<path d="M467.411 252.141C432.411 334.541 455.641 444.301 535.741 538.771" stroke="#EB8046" stroke-width="36" stroke-linecap="round" stroke-linejoin="round"/>
<path d="M385.831 503.109C339.051 524.359 316.831 540.739 288.301 576.929" stroke="#EB8046" stroke-width="36" stroke-linecap="round" stroke-linejoin="round"/>
<path d="M545.92 387.09C523.58 392.73 494.98 413.92 475.42 436.99" stroke="#EB8046" stroke-width="36" stroke-linecap="round" stroke-linejoin="round"/>
<path d="M992.451 204.23C969.681 200.71 935.971 213.18 908.971 226.79" stroke="#EB8046" stroke-width="36" stroke-linecap="round" stroke-linejoin="round"/>
<path d="M738.901 711.27C738.901 711.27 662.301 756.669 654.051 819.959" stroke="white" stroke-width="36" stroke-linecap="round" stroke-linejoin="round"/>
<path d="M1934.29 944.88C1934.29 944.88 1992.29 904.43 1947.77 817.76" stroke="white" stroke-width="36" stroke-linecap="round" stroke-linejoin="round"/>
<path d="M620.11 937.359C620.11 937.359 613.11 977.929 639.37 1001.56" stroke="white" stroke-width="36" stroke-linecap="round" stroke-linejoin="round"/>
<path d="M1371.87 1060.43C1371.87 1060.43 1450.48 1060.29 1513.48 1050.73" stroke="white" stroke-width="36" stroke-linecap="round" stroke-linejoin="round"/>
<path d="M1687.51 1640C1687.51 1640 1781.07 1640 1862.61 1610.43" stroke="white" stroke-width="36" stroke-linecap="round" stroke-linejoin="round"/>
<path d="M324.75 635.539C324.75 635.539 348.75 663.639 370.94 678.809" stroke="white" stroke-width="7" stroke-linecap="round" stroke-linejoin="round"/>
<path d="M321.061 371.27C321.061 371.27 333.231 406.12 348.481 428.27" stroke="white" stroke-width="7" stroke-linecap="round" stroke-linejoin="round"/>
<path d="M862.271 58.7793C862.271 58.7793 838.881 72.0793 832.461 93.6293" stroke="white" stroke-width="7" stroke-linecap="round" stroke-linejoin="round"/>
<path d="M907.211 217C907.211 217 924.761 207.17 938.621 205.41" stroke="white" stroke-width="7" stroke-linecap="round" stroke-linejoin="round"/>
<path d="M898 331C898 331 911.81 339.39 926.65 340.57" stroke="white" stroke-width="7" stroke-linecap="round" stroke-linejoin="round"/>
<path d="M1235.67 298.88C1235.67 298.88 1236.83 282.76 1231.1 269.02" stroke="white" stroke-width="7" stroke-linecap="round" stroke-linejoin="round"/>
<path d="M1141 122.379C1141 122.379 1154.72 113.829 1162.45 101.109" stroke="white" stroke-width="7" stroke-linecap="round" stroke-linejoin="round"/>
<path d="M457.401 256.529C457.401 256.529 446.741 272.429 446.461 293.199" stroke="white" stroke-width="7" stroke-linecap="round" stroke-linejoin="round"/>
<path d="M502.9 508.66C502.9 508.66 516.31 529.54 531.37 544.66" stroke="white" stroke-width="7" stroke-linecap="round" stroke-linejoin="round"/>
<path d="M588.869 174.92C588.869 174.92 588.969 197.76 595.179 215.92" stroke="white" stroke-width="7" stroke-linecap="round" stroke-linejoin="round"/>
<path d="M721.82 107.24C721.82 107.24 720.6 130.05 725.74 148.49" stroke="white" stroke-width="7" stroke-linecap="round" stroke-linejoin="round"/>
<path d="M1045 23.4609C1045 23.4609 1040.52 45.8609 1043 64.8509" stroke="white" stroke-width="7" stroke-linecap="round" stroke-linejoin="round"/>
<path d="M1088.44 273.939C1088.44 273.939 1095.02 295.819 1106.11 311.429" stroke="white" stroke-width="7" stroke-linecap="round" stroke-linejoin="round"/>
<path d="M1237.69 23.3594C1237.69 23.3594 1235.44 45.2394 1246.53 60.8394" stroke="white" stroke-width="7" stroke-linecap="round" stroke-linejoin="round"/>
<path d="M1361.93 28.9102C1355.29 32.4397 1349.73 37.7117 1345.86 44.1602" stroke="white" stroke-width="7" stroke-linecap="round" stroke-linejoin="round"/>
<path d="M1311.57 250.279C1311.57 250.279 1318.34 275.919 1329.24 287.759" stroke="white" stroke-width="7" stroke-linecap="round" stroke-linejoin="round"/>
<path d="M666.721 408.93C666.721 408.93 680.401 429.64 695.641 444.62" stroke="white" stroke-width="7" stroke-linecap="round" stroke-linejoin="round"/>
<path d="M783 371.5C783 371.5 803.76 383.73 825.11 384.63" stroke="white" stroke-width="7" stroke-linecap="round" stroke-linejoin="round"/>
<path d="M1270.31 2074.82C1270.31 2074.82 1260.85 2110.51 1261.03 2137.43" stroke="white" stroke-width="7" stroke-linecap="round" stroke-linejoin="round"/>
<path d="M1433.83 2081.66C1433.83 2081.66 1431.12 2095.93 1431.13 2103.96" stroke="white" stroke-width="7" stroke-linecap="round" stroke-linejoin="round"/>
<path d="M1641.88 2030.18C1641.88 2030.18 1628.7 2044.05 1624.88 2064.48" stroke="white" stroke-width="7" stroke-linecap="round" stroke-linejoin="round"/>
<path d="M1754.92 2000.94C1754.92 2000.94 1756.76 2023.71 1764.33 2041.3" stroke="white" stroke-width="7" stroke-linecap="round" stroke-linejoin="round"/>
<path d="M1886 1929.21C1886 1929.21 1884.78 1952.02 1889.93 1970.46" stroke="white" stroke-width="7" stroke-linecap="round" stroke-linejoin="round"/>
<path d="M1961.29 1888.24C1961.29 1888.24 1966.41 1910.5 1976.45 1926.8" stroke="white" stroke-width="7" stroke-linecap="round" stroke-linejoin="round"/>
<path d="M2157.18 1783.92C2157.18 1783.92 2166.37 1797.78 2176.92 1807.57" stroke="white" stroke-width="7" stroke-linecap="round" stroke-linejoin="round"/>
<path d="M2308 1927.48C2308 1927.48 2328.06 1942.15 2345.61 1949.79" stroke="white" stroke-width="7" stroke-linecap="round" stroke-linejoin="round"/>
<path d="M2022.29 1843.87C2022.29 1843.87 2036.05 1835.39 2043.85 1822.71" stroke="white" stroke-width="7" stroke-linecap="round" stroke-linejoin="round"/>
<path d="M2085.44 1788.26C2085.44 1788.26 2101.09 1784.2 2112.27 1774.37" stroke="white" stroke-width="7" stroke-linecap="round" stroke-linejoin="round"/>
<path d="M2104.77 1955.15C2104.77 1955.15 2117.83 1945.63 2124.62 1932.38" stroke="white" stroke-width="7" stroke-linecap="round" stroke-linejoin="round"/>
<path d="M2197.48 2062.8C2197.48 2062.8 2211.23 2054.32 2219.03 2041.63" stroke="white" stroke-width="7" stroke-linecap="round" stroke-linejoin="round"/>
<path d="M1341 2078.17C1341.53 2077.52 1372.13 2088.23 1371.8 2114.06" stroke="white" stroke-width="7" stroke-linecap="round" stroke-linejoin="round"/>
<path d="M1265.67 2297.29C1265.67 2297.29 1267.53 2316.02 1278 2340.81" stroke="white" stroke-width="7" stroke-linecap="round" stroke-linejoin="round"/>
<path d="M1443.36 2305.08C1443.36 2305.08 1445.22 2323.81 1455.69 2348.6" stroke="white" stroke-width="7" stroke-linecap="round" stroke-linejoin="round"/>
<path d="M1620.94 2288.79C1620.94 2288.79 1627.82 2312.64 1637.94 2331.48" stroke="white" stroke-width="7" stroke-linecap="round" stroke-linejoin="round"/>
<path d="M1841 2231.57C1841 2231.57 1854.67 2252.28 1869.92 2267.26" stroke="white" stroke-width="7" stroke-linecap="round" stroke-linejoin="round"/>
<path d="M2092 2098C2092 2098 2108.83 2116.24 2126.29 2128.57" stroke="white" stroke-width="7" stroke-linecap="round" stroke-linejoin="round"/>
<path d="M1951.29 2188.91C1951.29 2188.91 1972.05 2201.14 1993.4 2202.04" stroke="white" stroke-width="7" stroke-linecap="round" stroke-linejoin="round"/>
<path d="M1539.39 2331.48C1539.39 2331.48 1552.23 2329.41 1569.02 2319.56" stroke="white" stroke-width="7" stroke-linecap="round" stroke-linejoin="round"/>
</svg>
